<svg id="Layer_1" data-name="Layer 1" xmlns="http://www.w3.org/2000/svg" viewBox="0 0 248.56 435.63"><path d="M430.58,613.41H182V177.77H430.58ZM266.31,494.06a22.11,22.11,0,0,0-3.4,4.69,11.22,11.22,0,0,1-1,1.61,63.07,63.07,0,0,0-4.76,6.51c-.48.77-1.1,1.46-1.62,2.22-.85,1.24-1.66,2.51-2.5,3.76a5.43,5.43,0,0,1-.86,1.13c-1.23,1-2.15,2.44-3.75,3a.66.66,0,0,0-.3.2,3.14,3.14,0,0,1-1.81.82,3.45,3.45,0,0,1-3.47-1.55,1.69,1.69,0,0,1-.16-1c.39-1.86.79-3.72,1.27-5.56.24-.91.8-1.76,1-2.68.32-1.56,1.34-2.77,1.94-4.19.75-1.79,1.71-3.48,2.56-5.24.44-.92.76-1.91,1.25-2.81,1-1.91,2.13-3.79,3.21-5.68.45-.8.9-1.59,1.38-2.36.29-.47.69-.88.93-1.37a78.49,78.49,0,0,1,4-7.16c.63-1,1.26-2,1.91-3,.22-.33.6-.58.74-.93a25.13,25.13,0,0,1,2.59-4.28c1.1-1.64,2.15-3.31,3.25-4.95a3.27,3.27,0,0,1,.84-.82,2.8,2.8,0,0,0,1.12-1.35c.37-.91.81-1.8,1.25-2.68s.82-1.54,1.26-2.29a6.57,6.57,0,0,1,.64-.8l.24.52.79-.85-.49-.75a22.4,22.4,0,0,1,3.08-4.56.73.73,0,0,0,0-1.23l-3-2.71a27.11,27.11,0,0,1-3.16-3c-.53-.68-1.32-1.14-1.89-1.79s-1.25-.86-1.3-1.76c0-.23-.4-.58-.65-.62-.73-.11-1.05-.65-1.44-1.14a32.86,32.86,0,0,0-2.16-2.68c-1.46-1.52-3-3-4.52-4.42a5.66,5.66,0,0,1-.87-1c-.69-1.11-2-1.62-2.51-2.94a2.26,2.26,0,0,0-1.05-1.11,7.57,7.57,0,0,1-2.23-2.28c-.45-.55-.83-1.16-1.25-1.73a20.39,20.39,0,0,1-1.66-2.31,35.51,35.51,0,0,0-1.91-3.11c-1.2-1.81-2.22-3.75-3.31-5.65-.47-.82-.89-1.67-1.37-2.48-.68-1.16-1.45-2.26-2.08-3.44-.88-1.64-1.67-3.32-2.5-5a13.84,13.84,0,0,1-.65-1.27q-1-2.75-2-5.5a3.39,3.39,0,0,1-.24-1.17c.06-2.45-.64-4.8-1-7.19a2.94,2.94,0,0,0-.64-1.76,1.34,1.34,0,0,1-.23-.67c-.27-1.28-.49-2.57-.79-3.85a14.54,14.54,0,0,0-.89-3.08c-.6-1.28-.44-2.66-.77-4a.76.76,0,0,1,.05-.47c.62-1.08.14-2.15-.2-3.12a5.35,5.35,0,0,1-.1-3.26c.4-1.62.73-3.25,1.09-4.88.46-2.09.4-4.28,1.4-6.26a10.42,10.42,0,0,0,.54-2.33,24.1,24.1,0,0,1-2.47.81,23,23,0,0,1-2.47.27c-.2.19-.45.62-.75.66a3.1,3.1,0,0,1-1.63-.21,23.78,23.78,0,0,1-2.64-1.6,4.69,4.69,0,0,1-1.25-1,8.6,8.6,0,0,1-1.28-3.77c-.22-1.28-.9-1.95-2.16-1.65a3.5,3.5,0,0,1-1.64,0,4.29,4.29,0,0,0-1.19,0,5.64,5.64,0,0,1-4.42-1.33c-.51-.45-1-.87-1.56-1.3s-.83-.42-1.24,0a3.74,3.74,0,0,0-1.12,1.8c-.16.89-.52,1.74-.7,2.63a30,30,0,0,1-.87,3.08,31.06,31.06,0,0,0-.76,4c-.43,2.46-.84,4.94-1.26,7.41-.69,4.11-1.7,8.16-2.2,12.31-.1.9-.36,1.79-.54,2.69-.53,2.57-1.06,5.13-1.58,7.7-.26,1.28-.58,2.56-.77,3.85s-.27,2.85-.4,4.27a5.78,5.78,0,0,1-.14.7l-1.44,6.06c-.66,2.78-.8,5.68-1.9,8.36a1.88,1.88,0,0,0-.1.47c-.23,1.37-.45,2.74-.69,4.11a18.1,18.1,0,0,1-.5,2.56,13.14,13.14,0,0,0-.76,4.35,12.24,12.24,0,0,1-.24,1.88c-.23,1.74-.53,3.47-.69,5.21a11.86,11.86,0,0,1-.44,3.65,1.87,1.87,0,0,0-.07.59c-.19,1.45-.36,2.9-.59,4.35s-.52,2.71-.75,4.08c-.39,2.19-.69,4.4-1.14,6.59a33.29,33.29,0,0,0-1.11,5.1,31.86,31.86,0,0,1-.92,4.79c-.31,1.44-.73,2.86-1,4.31-.38,2.19-.67,4.4-1,6.61a3.89,3.89,0,0,1-.16.44c-.2.72-.39,1.45-.57,2.17s-.44,1.49-.64,2.23a8.24,8.24,0,0,0-.3,2q0,10,0,19.91V610.42c.58.22,1,.43,1.52.58a3.47,3.47,0,0,0,1.05.19c2.28,0,4.55,0,6.83,0h46.18l33.72,0h63.85l47.52,0,41.88,0c.51,0,1-.05,1.53-.08V360.58c-.19.08-.32.09-.39.16a4.51,4.51,0,0,1-2.94,1.39,3,3,0,0,0-2.11.93,3.11,3.11,0,0,1-2.1,1,7.13,7.13,0,0,0-1.86.41,11.61,11.61,0,0,1-1.75.66c-1.25.16-2.52.18-3.78.28a2.76,2.76,0,0,0-1,.23,1.55,1.55,0,0,1-2-.21,1.36,1.36,0,0,0-1.54-.36l0,.87a14.88,14.88,0,0,0-3.17-.7c-1.41-.21-2.84-.16-4.12-.95-.16-.1-.4,0-.59-.1a23.34,23.34,0,0,1-4.06-1.37c-1.12-.6-2.28-1.07-3.4-1.66a5.38,5.38,0,0,1-1-.9c-.39.19-.71,0-1-.38a6.07,6.07,0,0,0-1.58-1.54,5.24,5.24,0,0,1-2-1.83c-.39-.58-.81-1.14-1.19-1.72a1.13,1.13,0,0,1-.14-.58,2.07,2.07,0,0,0-1.64-2.18c-.31-.08-.58-.25-.88-.35a4.43,4.43,0,0,1-2.11-1.5c-.12-.16-.25-.4-.4-.42-.75-.11-1-.77-1.36-1.25a9.61,9.61,0,0,0-.89-1.11c-.49-.43-.86-.84-.5-1.48a5.29,5.29,0,0,1-2-3.41,10.06,10.06,0,0,1,0-3.05c.15-1.25,0-2.55.29-3.77.48-2.23.94-4.54,3.49-5.49a.67.67,0,0,0,.43-.39c.05-.28.06-.79-.07-.84-.76-.33-.55-1.05-.83-1.57.67-.54.86-1.37,1.64-1.78a1,1,0,0,0,.24-1.49,4.06,4.06,0,0,1-.28-3.24,2.71,2.71,0,0,0,.12-.93,4.82,4.82,0,0,1,.83-3.06,1.23,1.23,0,0,0,.23-.76,1.13,1.13,0,0,1,.43-1.05c.35-.38.93-.72,1-1.15a5.78,5.78,0,0,1,1.24-2.38,6.06,6.06,0,0,1,1.85-1.82c.13-.08.34-.14.36-.24.22-.91,1-1.2,1.69-1.54a2.48,2.48,0,0,0,.69-.47c.65-.61,1.28-1.24,2-1.93l1.12.94a10.33,10.33,0,0,1-1.76,1.79,9.83,9.83,0,0,0-2.77,2.72,22.9,22.9,0,0,1-1.5,2.11,6.39,6.39,0,0,0-1.31,2.63c-.34,1-.48,2.09-.72,3.14a7.09,7.09,0,0,0,0,4.46,1.8,1.8,0,0,1-1.05,2.46,1.31,1.31,0,0,0-.64,1.67c.15.41.35.8.53,1.21-.56.48-.52,1.38-1.3,1.77a2.34,2.34,0,0,0-1.13,2c-.17,1.09-.32,2.19-.51,3.28a17,17,0,0,0-.09,5.23c.15,1.05.9,1.94,1.16,3a3.52,3.52,0,0,0,.67,1,9.17,9.17,0,0,0,1.57,2.15,23.73,23.73,0,0,0,3.14,1.6c.84.44,2.12.26,2.36,1.59.9.41.75,1.15.69,1.93A2.53,2.53,0,0,0,392,355a6.33,6.33,0,0,1,1.26.9,25.69,25.69,0,0,0,4.82,3.23,12.37,12.37,0,0,1,1.32.78,20.21,20.21,0,0,0,3.08,1.84c1.68.64,3.5.92,5.07,2a1.31,1.31,0,0,1,1.64-.89c.62.15,1.32-.6,2,.19l.21.85.67.09c-.11-1.18.06-1.42,1.19-1.59a11.32,11.32,0,0,1,1.54,0,7.16,7.16,0,0,0,.93,0,12.13,12.13,0,0,1,1.86-.34,3.16,3.16,0,0,0,2.08-.75,1.55,1.55,0,0,1,1.18-.45.92.92,0,0,0,.74-.43c.3-.71.94-.92,1.51-1.26s.94-.57,1.4-.87c.23-.15.45-.34.68-.49s.56-.43.83-.06,0,.58-.27.78c-.48.3-.95.63-1.56,1a3.79,3.79,0,0,0,.85,0c1.42-.39,2.09-1.76,3.17-2.47V257.86a4.44,4.44,0,0,0-.61.58c-.41.62-.75,1.3-1.21,1.88a19.92,19.92,0,0,1-3.81,4.08,20.24,20.24,0,0,0-2.55,1.92,2.23,2.23,0,0,1-1.5.81c-.1,0-.2.12-.3.18-1,.62-1.92,1.26-2.88,1.87a7.43,7.43,0,0,1-1.84,1.06,8.25,8.25,0,0,1-3,.63,2,2,0,0,0-1,.29c-1,.5-1.88,1-2.82,1.54-.29.16-.54.31-.38.85a2.49,2.49,0,0,1,2.6-.26c-.15.38-.19.87-.46,1.13a19,19,0,0,1-2.62,2.21,9,9,0,0,0-2.92,3.62,13.85,13.85,0,0,0-.84,3.07c-.39,1.49.36,2.83.2,4.25.9,1.42,1.06,3.23,2.36,4.44.2.19.36.51.6.56,1.31.31,2.54,1.19,4,.64a3.61,3.61,0,0,1,1.16,0c-.09.55-.14,1-.23,1.38a6.05,6.05,0,0,0,.58,4.91,1.67,1.67,0,0,1-.53,2.55c-.35.25-.72.48-1.07.71l-1-.95c-.27,1.36-.3,1.47-1.55,1.41-1.8-.1-3.52.59-5.32.38-.35,0-.72.16-1.06.1a.94.94,0,0,1-.66-.52,1,1,0,0,1,.37-.75,1.47,1.47,0,0,1,.78-.28,31.87,31.87,0,0,1,5.43-.58c1.29.08,1.51-.34,1.09-1.56s-1.06-2.21-.77-3.52c.19-.86,0-1.3-.84-1.36a3.74,3.74,0,0,1-2.6-1.66,5.67,5.67,0,0,0-2-1.28,10.73,10.73,0,0,0-1.63,1.4,13.67,13.67,0,0,0-1.23,2.14c-.25.5-.46,1-.66,1.53l-1.64,4.47a1.86,1.86,0,0,1-.42.71,1,1,0,0,1-.72.27.83.83,0,0,1-.44-.6,2.38,2.38,0,0,1,.09-1.06c.42-1.19.87-2.38,1.35-3.55.56-1.36,1.13-2.71,1.77-4a6.82,6.82,0,0,1,1.39-2.2,1.77,1.77,0,0,0,.57-2.3,10.63,10.63,0,0,1-.67-2,10,10,0,0,1-.07-1.9,8.88,8.88,0,0,1,1.29-4.75,3,3,0,0,0,.48-2c-.21.05-.36.06-.51.11-1,.38-2.1.74-3.13,1.17a1.87,1.87,0,0,0-.87.72,14.88,14.88,0,0,1-3.23,4c-.44.4-.94.72-1.4,1.1a4.26,4.26,0,0,0-.51.56c.9.43,1.52,1.11,2.55,1.11a1.36,1.36,0,0,1,1.34,1.18,6.87,6.87,0,0,1-.63,3.35c-.33.67-.57,1.38-.84,2.08-.4,1-.74,2-2.07,2.21a15.76,15.76,0,0,0-2.58.89,1,1,0,0,0-.49.31,25,25,0,0,0-1.35,2.49c-.88,2-1.67,3.93-2.69,5.83-.89,1.67-1.59,3.45-2.6,5.08a14.83,14.83,0,0,0-1.24,2.95c-.49,1.46-1.45,2.75-1.45,4.39a2.76,2.76,0,0,1-.35,1.12c-.51,1.08-1.07,2.13-1.56,3.21a14.84,14.84,0,0,0-.79,2c-.44,1.44-.81,2.9-1.28,4.33a1,1,0,0,1-.78.53c-.26,0-.48-.44-.66-.72-.06-.1,0-.31.07-.46.37-1.34.68-2.7,1.14-4,.69-1.95,1.46-3.87,2.26-5.78.95-2.27,1.51-4.7,2.72-6.87.4-.73.72-1.5,1.07-2.26l2.31-4.94a44.1,44.1,0,0,0,2.06-4.55,9.71,9.71,0,0,1,1.72-3.2c.17-.21.35-.41.63-.73l-3.06-2.3c-.73-.55-1.66-.89-2-1.71a7.75,7.75,0,0,1-1.48-.5,2,2,0,0,0-2.68.35,2.22,2.22,0,0,1-1.56.77c-.55,0-.77.38-.66.91a2.06,2.06,0,0,1-.7,2.15,1.4,1.4,0,0,0-.27.53,5.87,5.87,0,0,1-2.11,2.66,1.71,1.71,0,0,0-1,1.39,1.53,1.53,0,0,1-.54.9,4.6,4.6,0,0,0-1.57,3,2.85,2.85,0,0,1-1.34,2.43,5.73,5.73,0,0,0-2.43,2.5c-1,1.48-1.51,3.23-2.61,4.67,0,.06-.07.14-.11.21-.62,1.27-.81,2.78-2.12,3.65-.06,0-.08.13-.12.2-.43.67-.88,1.32-1.29,2-.82,1.36-1.68,2.7-2.41,4.11-.92,1.8-1.45,3.79-2.6,5.49a1,1,0,0,0,.06,1.47c1.24-.42,1.8.53,2.43,1.34.12.16.16.39.3.52,1.22,1.1,2.51,2.13,3.67,3.29,1.58,1.56,3.08,3.2,4.57,4.85a8.47,8.47,0,0,1,2.13,3.28,25.8,25.8,0,0,0,1.06,2.63c.3.68.72,1.33,1,2,.53,1.49,1,3,1.47,4.53a14.81,14.81,0,0,1,.75,4.34,5.22,5.22,0,0,0,.62,3.23c.1.14,0,.39.09.58a16.29,16.29,0,0,0,.47,2.33,8.21,8.21,0,0,1,.34,4.47,12.87,12.87,0,0,0-.24,2.48c0,1.35.17,2.69.12,4-.09,2.55-.28,5.09-.46,7.63a16.52,16.52,0,0,1-.43,3.67,25.75,25.75,0,0,0-1,3.67c-.2,1.26-.46,2.51-.65,3.77s-.29,2.53-.55,3.78a41.23,41.23,0,0,1-1.09,4c-.36,1.12-1.37,2-1.42,3.25,0,.17-.22.33-.31.5a9.45,9.45,0,0,0-.5.94c-.6,1.38-1.23,2.75-1.75,4.15s-1.93,2.48-2.57,4a32,32,0,0,1-2.76,5,12.57,12.57,0,0,1-2.55,3.43,6.53,6.53,0,0,0-1.19,1.32c-.36.51-.6,1.1-.94,1.62-1,1.5-1.95,3-3,4.47-1.24,1.74-2,3.81-3.6,5.29a1,1,0,0,0-.19.3c-.64,1.18-1.27,2.36-1.94,3.52a5.67,5.67,0,0,1-.87,1.13,9.91,9.91,0,0,0-1.92,2.11,5.71,5.71,0,0,1-1.21,1.13,13.77,13.77,0,0,0-1,1c-.71.85-1.38,1.73-2.08,2.58a25.42,25.42,0,0,1-1.8,2.07,21.26,21.26,0,0,0-3.35,3.55c-.58.92-1.23,1.81-1.8,2.74a1.18,1.18,0,0,0-.17.88,22.89,22.89,0,0,0,1.09,2.36c.67,1.32,1.66,2.55,1.16,4.19,0,.06,0,.15.09.29.7,0,1.06.46,1.36,1.08.45.93,1,1.8,1.51,2.7.71,1.28,1.45,2.56,2.13,3.86.53,1,1,2.09,1.48,3.11.18.36.42.62.26,1.09-.07.19.22.72.37.73.57,0,.68.41.9.8.49.85,1.07,1.64,1.56,2.49.63,1.1,1.2,2.22,1.8,3.33-.29,1.32.52,2.14,1.34,3a1.87,1.87,0,0,1,.34.49c.49.89.6,2,1.59,2.59.06,0,.06.14.1.21.64,1.36,1.29,2.72,1.94,4.07a5.94,5.94,0,0,0,.38.59c.31.46.62.91.9,1.39.65,1.12,1.33,2.21,1.88,3.41s1.48,2.29,1.71,3.7a1.27,1.27,0,0,0,.56.75,4.8,4.8,0,0,1,1.81,2.44,14.84,14.84,0,0,1,.94,2.56,17.6,17.6,0,0,0,.81,1.85,8,8,0,0,1,.5,1.57,25.43,25.43,0,0,0,.42,3.05,2.61,2.61,0,0,1-.37,2.38,5.26,5.26,0,0,1-2,1.61c-.39.16-.93.24-1.32.41-.34-.28-.62-.68-.9-.69a2.19,2.19,0,0,1-1.58-.73,41,41,0,0,1-2.83-3.2c-1-1.33-2-2.75-2.93-4.15a16.81,16.81,0,0,1-.89-1.68c-.77-1.53-1.52-3.07-2.29-4.6-.34-.67-.65-1.36-1.05-2-.74-1.17-1.52-2.31-2.3-3.45-.92-1.35-1.85-2.68-2.81-4a2.16,2.16,0,0,0-.88-.74.91.91,0,0,1-.66-1,3.21,3.21,0,0,0-.72-1.95c-.4-.6-1.12-1.08-1-2a.39.39,0,0,0-.18-.29c-.82-.35-.93-1.12-1.14-1.85a3.66,3.66,0,0,0-.37-.74,32.53,32.53,0,0,1-1.69-3,18.15,18.15,0,0,0-3.11-5.28,3.64,3.64,0,0,1-.51-.8c-.45-.78-.85-1.6-1.35-2.36-1.35-2.06-2.75-4.09-4.13-6.12-.49-.72-1-1.45-1.5-2.15-.64-.85-1.16-.86-2-.12-.26.24-.53.48-.81.7a44.87,44.87,0,0,1-3.76,2.86c-1.58,1-2.76,2.53-4.6,3.14-.2.07-.46.27-.49.45A7.56,7.56,0,0,0,311,474a14.54,14.54,0,0,1-.13,4.7,2.7,2.7,0,0,0,0,.94,20.72,20.72,0,0,1,.1,4.59,6,6,0,0,0,.06.72,11.12,11.12,0,0,1,0,1.29c-.05.71-.19,1.41-.18,2.11,0,1.63.06,3.25.12,4.88a9.11,9.11,0,0,0,.18,3,4.4,4.4,0,0,1,0,1.66,18.72,18.72,0,0,1-.19,2.6c-.21,1.08.1,2.21-.45,3.27-.18.35,0,.91.11,1.37a5.59,5.59,0,0,1,.16,1.13c-.08,1-.27,2-.33,2.95-.12,1.9-.17,3.81-.26,5.72,0,1.07-.16,2.15-.15,3.22,0,3.74.12,7.49.05,11.22,0,1.32.21,2.74-.57,3.83a4.7,4.7,0,0,1,.39,1.22c.06,1.15,0,2.3,0,3.46,0,1.51,0,3,0,4.52a11.45,11.45,0,0,0,0,2.62,3.77,3.77,0,0,1-.57,2.94A25.42,25.42,0,0,1,308,550.7c-.89,1.23-2.05,2.09-3.73,1.64-.56-.16-1.21.1-1.67-.47s-.19-1.23-.28-1.84a5.73,5.73,0,0,0-.36-2.09,7.41,7.41,0,0,1-1.08-3.49c-.14-1.74-.3-3.48-.46-5.22-.19-2.11-.24-4.23-.32-6.34,0-.72,0-1.44,0-2.15-.11-1.65-.32-3.31-.39-5-.11-2.73-.12-5.46-.19-8.19-.07-2.43-.18-4.86-.23-7.29,0-1.28.15-2.56,0-3.83s.34-2.52.14-3.85c-.29-1.94.23-3.93.07-5.91a.65.65,0,0,1,0-.24c.47-2,.21-4.11.3-6.17.08-1.78.06-3.57.09-5.36,0-1.39.08-2.78.1-4.18s0-2.53,0-3.8c0-.48.05-1,0-1.43-.09-1.49-.85-2.93-.37-4.47-.43-1.19.08-2.36.1-3.54,0-.79-.07-1.1-.86-1.31a6.19,6.19,0,0,1-2.65-1.5c-.36-.32-.68-.66-1-1s-.61-.75-1-.83a3.51,3.51,0,0,1-1.91-1.46,1.22,1.22,0,0,0-.42-.37c-.62-.23-1.25-.41-1.94-.63-.06.07-.22.17-.26.3-.53,1.79-1.07,3.58-1.56,5.38-.42,1.56-.35,3.26-1.25,4.7a1,1,0,0,0-.1.58,38,38,0,0,1-.95,7.44c-.66,4-1.71,7.94-2.1,12-.06.72-.06,1.44-.19,2.14-.45,2.51-1,5-1.41,7.51-.29,1.69-.49,3.39-.72,5.08a21.85,21.85,0,0,0-.46,3.55c.15,3.74-.71,7.37-1.12,11-.18,1.66-.6,3.29-.86,4.94-.13.82-.09,1.67-.22,2.5-.22,1.41-.51,2.8-.77,4.2a1.38,1.38,0,0,0-.07.59,6.3,6.3,0,0,1-.22,2.83c-.06.47-.24.92-.31,1.4a29.35,29.35,0,0,1-1.22,6.42.63.63,0,0,0,0,.24,14.58,14.58,0,0,1-.69,4,13.36,13.36,0,0,0-.38,2.48c-.33,2-.68,4.08-1,6.11a6,6,0,0,1-2.49,4.26,2.9,2.9,0,0,1-.1-.86c.42-2,.89-4,1.3-5.93.51-2.45,1-4.9,1.46-7.35.2-1,.49-1.93.67-2.91.41-2.27.79-4.55,1.17-6.83a4.08,4.08,0,0,0,.06-2.35,1.68,1.68,0,0,1,0-.94c.25-1,.58-2.06.81-3.11a23.59,23.59,0,0,0,.77-4.21c.07-2.49.82-4.87,1-7.33.11-1.55.41-3.08.57-4.63.21-2.06.34-4.13.57-6.19.15-1.3.43-2.59.62-3.89.23-1.61.43-3.23.66-4.84.09-.63.24-1.25.32-1.88.42-3.24.8-6.48,1.26-9.71.21-1.42.61-2.8.88-4.2.32-1.64.61-3.28.89-4.93.37-2.19,1.13-4.3,1.3-6.54a13.62,13.62,0,0,1,.31-2c.28-1.24.6-2.47.91-3.7.42-1.7.86-3.39,1.28-5.09a2.38,2.38,0,0,0-.09-1.85c-1-.12-1.3-.07-1.44.59a4.45,4.45,0,0,1-1.58,2.59,1.48,1.48,0,0,0-.3.36l-3,5.29A21.94,21.94,0,0,1,280.4,470a3.43,3.43,0,0,0-.6,2.14c-.06,1.69.17,3.41-.82,4.94a2.35,2.35,0,0,0-.19.81c-.27,1.33-.46,2.68-.81,4-.67,2.46-1.44,4.89-2.12,7.34-.31,1.1-.51,2.24-.73,3.36a10.75,10.75,0,0,1-.35,2,24.68,24.68,0,0,0-.86,3.33,70.23,70.23,0,0,0-1.19,7.3c-.6,4-1.24,8-1.89,11.93-.19,1.14-.46,2.26-.66,3.4-.54,3.1-1,6.22-1.63,9.29-.43,1.94-.85,3.88-1.17,5.85-.45,2.71-1,5.39-1.22,8.15-.15,1.93-.63,3.83-.91,5.75-.33,2.24-.61,4.49-.92,6.74-.14.94-.32,1.88-.47,2.82-.11.62-.21,1.25-.29,1.87a7.34,7.34,0,0,1-.08.82,25.57,25.57,0,0,0-1.12,5.62,9.31,9.31,0,0,1-.39,2.34,41.52,41.52,0,0,0-1.52,7.48c-.22,1.86-.54,3.71-.9,5.54s-.8,3.49-1.21,5.23c0,.15,0,.32,0,.48-.26,2.21-1.05,4.34-1,6.6a.53.53,0,0,1,0,.12c-.21,1.37-1,2.6-1,4a1.33,1.33,0,0,1-1,1.45,2.07,2.07,0,0,1-.81-2,18.53,18.53,0,0,1,.39-3.08c.4-1.78.93-3.53,1.33-5.31s.75-3.82,1.16-5.73c.27-1.28.67-2.54.91-3.83.38-2.08.63-4.17,1-6.24.24-1.3.66-2.55.9-3.84.45-2.43.77-4.88,1.26-7.3a61.84,61.84,0,0,0,1.53-9.19,25.31,25.31,0,0,1,.3-2.73c.44-2.83.92-5.66,1.38-8.49.25-1.57.49-3.14.77-4.71.45-2.51.93-5,1.38-7.51s.86-5.26,1.35-7.88c.44-2.35,1-4.68,1.42-7q.9-4.82,1.68-9.66c.3-1.85.49-3.71.74-5.56.07-.47.22-.93.33-1.39.15-.65.33-1.31.46-2,.2-1,.33-2,.55-3.05a20.1,20.1,0,0,0,.74-2.89c.16-2.67,1.3-5.08,1.92-7.63a44.93,44.93,0,0,0,1.24-6.17,1.72,1.72,0,0,1,.73-1.41c.63-.44.64-.72.15-1.64-.4.65-.76,1.26-1.12,1.86a20.93,20.93,0,0,1-2.71,3.58,13,13,0,0,0-2,2.53c-.67,1.25-1.12,2.63-1.67,3.94-.11.26-.24.5-.37.74-.63,1.13-1.26,2.26-1.91,3.41a1.6,1.6,0,0,1,.65,2.14c-.86,2.47-1.68,5-2.48,7.46-.57,1.78-1.12,3.56-1.6,5.36a26.17,26.17,0,0,0-.51,2.94c-.25,1.65-.42,3.31-.72,4.95-.34,1.84-.79,3.66-1.15,5.49a1.91,1.91,0,0,0,.13,1.16,2.8,2.8,0,0,1,0,2.43c-.38,1-.88,2.06-1.17,3.12a24.78,24.78,0,0,0-.91,4.32c-.24,2.67-1.26,5.17-1.47,7.85a50.83,50.83,0,0,1-1.2,6.19c-.31,1.48-.6,3-1,4.43a25.86,25.86,0,0,0-1.2,4.35c-.14,2.14-1,4.09-1.35,6.16-.48,2.66-1.27,5.25-1.94,7.87-.49,1.88-1,3.76-1.5,5.65-.37,1.43-.71,2.86-1.05,4.29-.11.43-.16.87-.3,1.28-.07.2-.29.48-.44.48a1.15,1.15,0,0,1-.7-.35.82.82,0,0,1-.17-.55,11.42,11.42,0,0,1,.08-2.27,75.67,75.67,0,0,1,2.08-8.33c1.07-3,1.37-6.31,2.7-9.26a1.85,1.85,0,0,0,.07-.71,16,16,0,0,1,.56-4.13c.37-1.22.76-2.43,1-3.67.82-3.57,2-7,2.38-10.72.22-2,.79-4,1.18-6,.79-3.94,1.59-7.88,2.35-11.82.29-1.53.45-3.08.7-4.61.13-.82.36-1.63.5-2.46.23-1.29.39-2.6.64-3.89.33-1.72.67-3.44,1.08-5.13.68-2.79,1.43-5.55,2.13-8.32.19-.73.31-1.48.46-2.21l.6-1-.32-.12Zm22.41-131.2c-.06,1.13-.05,2-.16,2.87a6.44,6.44,0,0,1-2.1,4.53,1.36,1.36,0,0,0-.51.62,4.79,4.79,0,0,1-2.37,2.86,4.08,4.08,0,0,0-2,2.23,1.44,1.44,0,0,1-1.42.9,1.78,1.78,0,0,1-1-1.52c0-.24.09-.47.11-.71a1.25,1.25,0,0,0,0-.58c-.58-1.12-1.15-2.25-1.81-3.33-.76-1.26-1.65-2.43-2.39-3.7-.62-1-1-2.25-1.7-3.26s-1.36-2.14-2-3.22a33.68,33.68,0,0,1-2.76-5.25c-.08-.18-.1-.43-.24-.54-1.16-.95-1.38-2.46-2.11-3.66a47.93,47.93,0,0,1-2.43-5.41,4.88,4.88,0,0,0-.9-1.51,3.72,3.72,0,0,1-.88-1.66,4.16,4.16,0,0,0-.27-.66c-.5-1-1.1-2-1.5-3.1-.86-2.29-2.4-4.19-3.51-6.34a27.14,27.14,0,0,1-1.23-3.06c-.2-.52-.22-1.11-.46-1.6-.64-1.26-1.36-2.49-2-3.73-1.2-2.24-2.41-4.48-3.6-6.74-.83-1.58-1.62-3.18-2.42-4.77a6.89,6.89,0,0,1-.47-1.09,4.45,4.45,0,0,0-1.43-2.14,10.57,10.57,0,0,1-2.52-3.73c-.36-.79-.57-1.65-.92-2.45a10.74,10.74,0,0,0-1.38-2.75,11.29,11.29,0,0,1-2-3.47,1.26,1.26,0,0,0-1-.94,2.43,2.43,0,0,1-1.52-1.42c-.63-1.28-1.19-2.6-2.62-3.26a2.68,2.68,0,0,1-.86-.82,1,1,0,0,0-1.47-.27,22.72,22.72,0,0,0-4.09,2.5c-.75.66-1.43,1.38-2.17,2.05a2.7,2.7,0,0,1-2.46.75,2.93,2.93,0,0,1-2.4-1.62,1.33,1.33,0,0,0-.41-.44,4.68,4.68,0,0,1-1.93-3.17c-.14-.7-.26-1.43-1-1.79a.77.77,0,0,1-.26-.6c0-.58.06-1.16.1-1.72.23-.11.38-.16.51-.24a13.65,13.65,0,0,1,4.66-1.72,7.94,7.94,0,0,0,1.45-.54c.55-.23,1.09-.46,1.63-.72,1.57-.77,3.15-1.51,4.68-2.34.68-.36.62-.45.17-1a1.45,1.45,0,0,1-.39-.82,2.59,2.59,0,0,0-.51-1.55,3.25,3.25,0,0,1-.6-1.54,6.86,6.86,0,0,0-.78-3c-.29-.64-.68-1.24-.94-1.9-.76-1.92-1-4-1.94-5.88-.05-1.61-1.26-2.93-1.16-4.58,0-.18-.15-.36-.22-.55-.22-.63-.46-1.26-.65-1.9s-.35-1-1-1c-1.9-.09-2.63-1.58-2.92-3a10.4,10.4,0,0,1,.81-6.95,3.34,3.34,0,0,1,3.31-2c.6,0,1.2.08,1.79,0a3.14,3.14,0,0,1,2.68.68,1.73,1.73,0,0,0,.63.33,5.33,5.33,0,0,1,3.33,3.78c.17.65.15,1.36.36,2a3.12,3.12,0,0,1-.35,2.39c-.27.56-.46,1.15-.65,1.61a7,7,0,0,1,1.61,1.11c.82,1.06,1.53,2.22,2.28,3.34a25.23,25.23,0,0,0,2.18,3.28,33.5,33.5,0,0,1,5.86,8.31c.13.29.31.56.46.84a.7.7,0,0,0,1.09.33c1.25-.75,2.53-1.46,3.74-2.28a22.94,22.94,0,0,0,2.56-2.07,4.07,4.07,0,0,1,2.81-1.11c1.79,0,2.62.1,3.21,2a13.59,13.59,0,0,0,1.41,3.78c.38.55.73,1.13,1.07,1.65a1.22,1.22,0,0,1-1.45.72,4.3,4.3,0,0,1-2.84-2.12,9.14,9.14,0,0,1-.86-2,3.1,3.1,0,0,0-1-1.32l-3.78,2.64c-1.64,1.16-3.57,1.89-5,3.38a1.36,1.36,0,0,1-1.6.25c-.88,1.38-2.31,1.91-3.53,2.73a.79.79,0,0,1-.57.07,3.4,3.4,0,0,0-2.27.51c-.4.18-.71.55-1.11.7a11.21,11.21,0,0,0-4.46,2.41,1.14,1.14,0,0,1-.42.23c-1.24.42-2.48.81-3.71,1.26s-2.21.88-3.3,1.35a2.61,2.61,0,0,1-1.93.34,1.63,1.63,0,0,0-1.77.72,1.37,1.37,0,0,0,.07,1.68,1.66,1.66,0,0,1,.33.63c.25,1.51,1.42,2.45,2.2,3.64a1.07,1.07,0,0,0,1.38.34,13.36,13.36,0,0,0,2-1.45,10.15,10.15,0,0,1,2.61-1.64c1.76-.9,3.48-1.87,5.22-2.81a.69.69,0,0,0,.18-.16,16.74,16.74,0,0,1,4.63-2.63c1.64-.77,3.44-1.19,5.1-1.91a14.54,14.54,0,0,0,3.5-2,18.24,18.24,0,0,1,3.62-2c1-.53,2.15-.83,3.18-1.32a8.73,8.73,0,0,1,4.17-.85,2.89,2.89,0,0,1,.87.33c-.15.62-.37.93-.92,1a4.94,4.94,0,0,0-1.09.35c-.56.2-1.12.39-1.67.62-.32.13-.62.32-.93.48a28.25,28.25,0,0,1-2.76,1.36c-.94.35-1.15.47-.8,1.44a3,3,0,0,1-.07,2.31c-.35.86-.29,1.11.47,1.63a2.53,2.53,0,0,1,1.12,1.62c.13.62.21,1.25.28,1.88.13,1.21.46,1.55,1.69,1.7.07,0,.12.09.28.22a10.84,10.84,0,0,1,0,3.59,2.75,2.75,0,0,1-.46,1.56c-.82.93-.77,1.22.05,2.12a6.19,6.19,0,0,1,1.63,2.84,4.72,4.72,0,0,0,.6,1.29c.34.59.74,1.13,1.09,1.71.64,1.05,1.24,2.12,1.89,3.17s1.11,1.05,2.05.29c.62-.49,1-1.38,2-1.27.11,0,.28-.17.34-.3.22-.55.42-1.1.6-1.66.07-.22,0-.58.1-.67.71-.52,1.17-1.41,2.23-1.45a1.83,1.83,0,0,0,1.16-.52c.91-.93,1.75-1.93,2.61-2.92a.83.83,0,0,0,.18-.3c.7-1.65,1.49-3.26,2.07-4.95a23.7,23.7,0,0,0,1.17-4.6c.3-2.17.36-4.37.51-6.55a2.42,2.42,0,0,0,0-.71c-.24-1.05-.56-2.08-.76-3.13-.43-2.28-1.85-4.11-2.85-6.11-.58-1.16-1.22-2.3-1.78-3.48-.24-.53-.54-1.18-1.29-1-2.24.48-4.08-.82-6.07-1.37a8.64,8.64,0,0,1-2.92-1.5,24.83,24.83,0,0,0-2.6-1.4c-2-1.2-3.92-2.39-5.8-3.7a12.31,12.31,0,0,1-2.49-2.4c-1-1.25-1.8-2.62-2.66-4a3.19,3.19,0,0,1-.5-1.19,1.45,1.45,0,0,0-.64-1.07,3.61,3.61,0,0,1-.75-1.06c-.42-.67-.84-1.35-1.24-2s-.8-1.38-1.13-2.1c-.68-1.47-1.29-3-2-4.44a9.85,9.85,0,0,1-1.14-4.47,11.65,11.65,0,0,0-.15-1.67,26.67,26.67,0,0,1-.15-5.72,13.24,13.24,0,0,0,.06-2.95,9.72,9.72,0,0,1,.24-3.41c.5-1.91,1.15-3.78,1.72-5.67a6.39,6.39,0,0,1,.39-1.49c1-1.59,1.37-3.46,2.61-4.94s2-3.17,3.36-4.43a5.08,5.08,0,0,0,.65-.94c-.15-.21-.22-.42-.34-.45a29.88,29.88,0,0,0-3-.72,8.13,8.13,0,0,1-4.13-2.39,1.05,1.05,0,0,1-.18-.31,49.53,49.53,0,0,1-2.2-5.78,6,6,0,0,1,.24-3.84,33.66,33.66,0,0,1,3.94-7.15,35.82,35.82,0,0,1,2.83-3.22,22.26,22.26,0,0,1,1.72-1.53c-1.44-.15-2.65-.33-3.87-.38a4.13,4.13,0,0,1-1.83-.25,4.07,4.07,0,0,0-1.5-.13c-.71,0-1.42-.11-2.13-.1s-1.49-.12-1.93.22a1.92,1.92,0,0,1-2.21.11,3.18,3.18,0,0,0-.85-.38c-.82-.06-1.64,0-2.46,0l-17.77,0-24.36,0c-.41,0-.83.06-1.26.08q0,143.76.16,287.23a7.92,7.92,0,0,0,.47-1.95,31.42,31.42,0,0,1,.69-4.68,10.66,10.66,0,0,0,.44-2.54c0-.68.17-1.34.25-2a24.52,24.52,0,0,0,.48-5.34,7.1,7.1,0,0,1,.18-1.77c.15-.91.33-1.8.5-2.7.1-.55.2-1.09.31-1.64.21-1,.43-2,.62-3,.13-.66.14-1.36.33-2a8,8,0,0,0,.67-3.45,1.49,1.49,0,0,1,.05-.36c.47-2.86,1-5.71,1.39-8.58.49-3.35.9-6.71,1.38-10.06.2-1.34.5-2.66.77-4,.16-.82.35-1.63.53-2.44.06-.27.15-.53.2-.8.25-1.25.49-2.5.74-3.75a6.22,6.22,0,0,0,.21-.93c.15-4.1,1.62-7.95,2.29-11.95.35-2.15.83-4.29,1.18-6.45.28-1.72.39-3.46.68-5.18.33-1.92.8-3.81,1.17-5.72s.67-3.68,1-5.52c.45-2.42.93-4.84,1.37-7.27.26-1.48.42-3,.7-4.47.41-2.11.9-4.2,1.34-6.3.09-.46.11-.95.22-1.41a23.27,23.27,0,0,0,1.06-5.73.53.53,0,0,1,.09-.33,6.11,6.11,0,0,0,1-2.77,1.87,1.87,0,0,1,1.18-1.53,1.17,1.17,0,0,0,.82-1.31,5.33,5.33,0,0,1,.13-2.69c.15-.46-.23-.69-.73-.51a3,3,0,0,1-.64.28l-4.65.48a8.88,8.88,0,0,1-4.28-.73,46.27,46.27,0,0,1-5-2.78,12.06,12.06,0,0,1-3.2-3c-.76-1-1.65-1.81-2.5-2.69a1.47,1.47,0,0,0-.53-.27c-1.9-.79-2.27-1.68-1.49-3.68A5.31,5.31,0,0,1,188,325.3a37.21,37.21,0,0,0,5.91,5.31,16.49,16.49,0,0,0,3.29,1.62c.84.32,1.78.4,2.65.67a1.69,1.69,0,0,0,1.47-.08,3.23,3.23,0,0,1,2.18-.38,2.2,2.2,0,0,0,1-.2,5.38,5.38,0,0,1,1.19-.52,5.57,5.57,0,0,0,3.89-2.43,2.89,2.89,0,0,1,2.08-1,16.94,16.94,0,0,0,3.94-.89c.87-.32,1.95-.56,2.37-1.64,0-.09.19-.14.28-.22,1.94-1.45,3.48-3.16,3.72-5.73a1.24,1.24,0,0,1,.11-.46c.37-.82.77-1.54,1.87-1.58a1.49,1.49,0,0,0,1.5-1.54c0-.2,0-.4,0-.6a1,1,0,0,1,1.38-1.07,11.34,11.34,0,0,0,1.25.4c1.61.26,3.06,1,4.7,1.3a16.79,16.79,0,0,0,4.58.42c1.39-.14,2.78-.2,4.18-.25a7.18,7.18,0,0,0,2.94-.39,1.42,1.42,0,0,1,.58-.1,2.48,2.48,0,0,1,2.3,2,1,1,0,0,1-.35.8c-1,.42-1.82,1.17-3,1.1-1.67-.09-3.28.64-5,.39a1.21,1.21,0,0,0-.35.09,6.54,6.54,0,0,1-3.17-.05,15.82,15.82,0,0,1-3.42-1,9.11,9.11,0,0,0-1.62-.32c-.55-.14-1.08-.36-1.65-.55a3,3,0,0,0-.29.38,4,4,0,0,1-2.2,2.37,2,2,0,0,0-1.28,2.18,2.11,2.11,0,0,1-.76,2,4.83,4.83,0,0,0-1.06,1.57,7.47,7.47,0,0,1-2.54,2.55c-.71.51-1.49.92-2.18,1.45a6.64,6.64,0,0,1-3.34,1.38c-.9.09-1.81.16-2.84.25a10,10,0,0,0-.16,2.22c.08.61,0,1-.49,1.31a.85.85,0,0,0-.41,1,6.51,6.51,0,0,0,2.79,4.49,2.39,2.39,0,0,1,.46.38,3.07,3.07,0,0,0,2,1c1.6.12,3.18.67,4.81.09a5.53,5.53,0,0,1,1.53-.19,1.27,1.27,0,0,1,1.41.88,22.8,22.8,0,0,1,.89,3c.29,1.47,2,3.4,3.43,3.55s2.86.13,4.29.16c.35,0,.71-.11,1.06-.11,1,0,1.33-.15,1.59-1,.57-2,2-3.58,2.79-5.47.44-1,1.27-1.92,1.78-2.95a6.28,6.28,0,0,1,1.48-1.83c.4-.38.75-.82,1.14-1.21a29.18,29.18,0,0,1,3.18-3c1-.75,2.16-1.46,3.25-2.15,1.32-.82,2.78-1.27,4.1-2.05,1-.6,1.29-.38,1.64.88a22.71,22.71,0,0,1-3.08,1.89,7.34,7.34,0,0,0-2.47,1.59c-.79.79-1.66,1.49-2.44,2.28a29.45,29.45,0,0,0-2.87,3.15,11.83,11.83,0,0,0-1.81,3.07,7,7,0,0,1-.8,1.18,16.15,16.15,0,0,0-1.47,2.58c-.62,1.59-1.06,3.24-1.58,4.86a.84.84,0,0,1-.15.33,3.64,3.64,0,0,0-.85,2.06c-.32,1.43-.64,2.87-1,4.3a3.81,3.81,0,0,0-.18,2.56c.08.19-.06.46-.08.7-.11,1.5-.28,3-.31,4.52a39.57,39.57,0,0,0,.41,6.79c.29,1.89.42,3.81.86,5.66.4,1.68,1.34,3.21,1.5,5a12.59,12.59,0,0,0,1,4c.09.2,0,.48,0,.71a25.14,25.14,0,0,0,1.55,7.56c.86,2.13,1.83,4.21,2.86,6.26.33.67.5,1.43.86,2.08,1,1.88,2.17,3.71,3.18,5.59.57,1.05.75,2.33,1.88,3,.74,1.89,2.39,3.29,2.89,5.32,0,.1.15.18.22.27l1.54,2a5.92,5.92,0,0,1,.92,1.49c.26.65,1,1.11,1.12,1.87,0,.06.12.12.19.13,1,.07,1.34.72,1.57,1.55.06.2.31.34.45.53s.37.57.54.86l.41.71.2-1c.52.55,1,.9.53,1.55.69,1,1.86,1.44,2.42,2.49.1.2.48.24.69.4.4.31.78.65,1.15,1,.14.13.23.34.38.4,1,.4,1.56,1.38,2.37,2a1.84,1.84,0,0,1,.61.83,3.06,3.06,0,0,0,1.37,1.57,6.77,6.77,0,0,1,.7.41c.79.71,1.53,1.48,2.33,2.17,1.6,1.4,2.89,3.15,4.78,4.2a2.73,2.73,0,0,1,.35.33c1.32,1.21,2.63,2.43,4,3.6,1.07.94,2.2,1.81,3.3,2.72.55.45,1.12.89,1.07,1.75,0,.16.44.51.48.48.72-.49,1,.27,1.41.51s.52.48.81.67c1.14.73,2.3,1.43,3.43,2.16.32.21.56.54.89.74.53.32,1.13.55,1.66.88s.88.78,1.38,1.07a19.46,19.46,0,0,1,3.95,2.79,2.35,2.35,0,0,0,.63.33,31.21,31.21,0,0,1,4.06,2.12c1.3.94,3,1.1,4.06,2.41a13.35,13.35,0,0,0,3.9.71.67.67,0,0,0,.34-.09c.58-.42,1.16-.83,1.73-1.27,1.31-1,2.6-2.08,3.93-3.09a1.55,1.55,0,0,1,.87-.16,4.69,4.69,0,0,0,2.37-.11l-1.54-1.67c.18-.16.29-.26.41-.35,1.8-1.31,3.62-2.59,5.39-3.93.5-.37.81-1.06,1.34-1.33,1-.53,1.39-1.59,2-2.41a17.51,17.51,0,0,1,2.77-3.37,16.36,16.36,0,0,0,1.6-1.72c1.11-1.2,2.13-2.48,3.34-3.57a14.78,14.78,0,0,0,2.54-2.82,21.91,21.91,0,0,1,1.92-2.56c1.28-1.42,2.65-2.75,4-4.15,2.21-2.37,3.48-5.4,5.45-7.95a29.69,29.69,0,0,1,2.36-3.12,2.31,2.31,0,0,0,.56-.77,12.23,12.23,0,0,1,1.81-3.05,12.65,12.65,0,0,0,2.09-3.16c.43-1.33,1.33-2.34,1.83-3.59.3-.76.35-1.64,1.06-2.22.14-.12.11-.45.17-.69a10.41,10.41,0,0,1,.62-2.53c1-1.85,1-4,2.07-5.81a3,3,0,0,0,.2-.81c.25-1.08.5-2.17.76-3.24a28.4,28.4,0,0,0,1.28-5.45,3.43,3.43,0,0,1,.3-1.39c1.11-2.17,1-4.56,1.34-6.88.16-1.22.12-2.48.36-3.68a20.75,20.75,0,0,0,.35-5.33,15.89,15.89,0,0,1-.11-4.41.6.6,0,0,0,0-.35,3.26,3.26,0,0,1,.18-2.11,5.35,5.35,0,0,0,.22-1c.09-1.29.44-2.58,0-3.87-.06-.19.07-.45.09-.69a1.21,1.21,0,0,0,0-.53,2.17,2.17,0,0,1,.4-2.38c-.91-.28-.78-.92-.81-1.57a16.39,16.39,0,0,0-.43-3,2.08,2.08,0,0,1-.08-1.37,1.58,1.58,0,0,0-.27-1.56,5.44,5.44,0,0,1-1.12-2.57,2.76,2.76,0,0,0-1-2.09,1.09,1.09,0,0,1-.33-1.29,1.93,1.93,0,0,0-.65-2.08,17.4,17.4,0,0,1-2.44-2.72,4.82,4.82,0,0,0-1.36-1.41c-.69-.45-1.47-.77-1.77-1.68a3.14,3.14,0,0,0-.85-1.23c-1.07-1-2.26-1.85-3.27-2.9a4.37,4.37,0,0,0-1.71-1.09,4,4,0,0,0-.72.78c-.59,1.2-.8,2.58-1.69,3.65,0,0,0,.08,0,.11A27.65,27.65,0,0,1,348,343c-.1.17-.23.33-.32.5q-1.44,2.75-2.87,5.49c-.45.88-.84,1.79-1.28,2.68a5.91,5.91,0,0,1-.46.69c-.15.23-.39.43-.44.68-.42,1.82-1.8,3.16-2.45,4.87a17,17,0,0,1-.95,1.85l-.66,1.27a11.67,11.67,0,0,1-1.17,2.18,14.35,14.35,0,0,0-2,3.75,1.18,1.18,0,0,0,0,.53c.41.35,1.09.4.95,1.2a22.31,22.31,0,0,1-3.65,1.21,37.66,37.66,0,0,1-5,.29c-.77,0-1.54-.41-2.3.11-.12.08-.38,0-.56-.07a8,8,0,0,0-1.12-.35c-1.78-.15-2.6-1.51-3.53-2.73a1.59,1.59,0,0,1-.35-1c0-.34.28-.93.48-.95,1.16-.12,1.39-1.05,1.85-1.83.66-1.12,1.37-2.22,2.11-3.29s1.79-1.84,1.92-3.23a1.41,1.41,0,0,1,.26-.52c.58-.9,1.16-1.8,1.75-2.68.45-.69.94-1.36,1.39-2.06a6.42,6.42,0,0,0,.24-.66c.53-1.15,1-2.31,1.6-3.44.95-1.87,2-3.67,2.88-5.58a5.57,5.57,0,0,1,1.34-2.06,4.79,4.79,0,0,0,1.42-2.68,8.27,8.27,0,0,1,.65-1.78c.5-1,1.1-2,1.59-3.05a13.61,13.61,0,0,0,.59-1.77,2.57,2.57,0,0,0-.41-.19,3.56,3.56,0,0,1-.47-.1,6.39,6.39,0,0,0-4.48-.59c-.38.09-.88.27-1.16.11-.89-.51-1.61,0-2.35.25-.89-.78-.91-.75-1.85-.15a5.34,5.34,0,0,1-1.62.67c-1.39.33-2.81.56-4.2.86a2.42,2.42,0,0,0-1,.41,19,19,0,0,1-3.52,1.7c-1.77.86-3.61,1.62-4.91,3.21a5.7,5.7,0,0,1-1.08.94c-.94.66-1.92,1.24-2.84,1.92-.52.39-.95.86-1.82.4,0,.55,0,.94,0,1.33,0,2.31.13,4.63.07,6.94a10.22,10.22,0,0,0,.6,4.81.73.73,0,0,1,0,.36c-.06,1.38-.14,2.77-.19,4.15a2,2,0,0,0,.09.94,2.19,2.19,0,0,1-.28,2.35,4.2,4.2,0,0,0-.28.71c.87.43.68,1.14.59,1.86a15.42,15.42,0,0,0-.11,2.25c0,.87.18,1.74.17,2.61,0,1.23-.14,2.46-.27,3.69a1.33,1.33,0,0,0,.85,1.5,3.67,3.67,0,0,1,.82-.55c.32-.1.86-.18,1,0a1.59,1.59,0,0,1,.16,1.09.87.87,0,0,1-.47.63c-.52.09-.68.49-.92.84a11.62,11.62,0,0,1-1.26,1.73,24.24,24.24,0,0,1-2.86,2.51c-1,.75-1.7,2.06-3.16,2.21a.49.49,0,0,0-.2.13c-1.64,1.4-3.69,1.75-5.71,2.15a3.42,3.42,0,0,1-.9-.08c.06-.42,0-.85.17-1.08a2,2,0,0,0,.13-2.15,2.88,2.88,0,0,1-.23-1.15c.1-2.43.24-4.85.36-7.27a8,8,0,0,1,.11-1.55c.57-2.29.17-4.6.09-6.9s-.29-4.53-.3-6.8c0-3.13.35-6.26.22-9.4-.05-1,.12-2.06.1-3.08,0-1.43-.13-2.86-.18-4.29,0-1-.21-1.25-1.16-1.23a2.25,2.25,0,0,1-1.85-.91,17.18,17.18,0,0,0-2.58-2.46c-1.85-1.48-4.06-2.32-6-3.58a1.7,1.7,0,0,0-.45-.15c-1-.29-2.05-.56-3.06-.86s-1.86-.65-2.82-.85c-1.17-.24-2.45.24-3.59-.49a1,1,0,0,0-.81,0c-.68.33-1.23-.06-1.84-.18a9.11,9.11,0,0,0-1.87-.23c-.61,0-.82.4-.63,1a7.91,7.91,0,0,0,.52,1.2c.53,1.06,1.08,2.12,1.6,3.19s1,2.12,1.53,3.17c.81,1.64,1.65,3.26,2.47,4.89s1.53,3.23,2.38,4.8c.74,1.35,1.62,2.63,2.43,3.94a15.67,15.67,0,0,1,.85,1.42c.74,1.53,1.44,3.09,2.19,4.62.62,1.25,1.3,2.46,1.93,3.7a1.6,1.6,0,0,0,1.57,1A6,6,0,0,1,288.72,362.86ZM382.31,258a7.28,7.28,0,0,0-1-1.41,2.27,2.27,0,0,1-.62-2.31,10.26,10.26,0,0,1,1.76-4.62,4.49,4.49,0,0,1,3.25-1.75,7,7,0,0,1,2.55.31c.67.19,1.39.1,1.89.73.08.1.31.07.45.14a5.87,5.87,0,0,1,.88.5,10.54,10.54,0,0,0,.8.7,5.28,5.28,0,0,1,2.36,2.75,5.12,5.12,0,0,1-.14,3.64c-.34,1.06-1.31,1.58-1.86,2.46a2.79,2.79,0,0,1-1.83,1.23,6.1,6.1,0,0,0-1.68.59c-.29.16-.64.64-.59.91a14.31,14.31,0,0,1-.4,4.62,10.27,10.27,0,0,1-.85,3.34,10,10,0,0,0-.83,2.31,11.1,11.1,0,0,1-.63,1.66c-.42.94-.86,1.88-1.31,2.8a5.15,5.15,0,0,1-.55.77c-.69.87-1.43,1.71-2,2.63a3.63,3.63,0,0,0-.47,1.59,1.42,1.42,0,0,0,1.33,1.66c1.46-.07,2.53.88,3.81,1.26a3.53,3.53,0,0,0,3.77-.9c.6-.74,1.19-1.49,1.76-2.26a1.57,1.57,0,0,0,.35-1.77,2.59,2.59,0,0,1-.11-.58c-.17-.65,0-1.09.74-1.18a1.38,1.38,0,0,0,.41-.18c1.18.92,3.5.33,4.64-.44a9.15,9.15,0,0,0,2.31-2,7.59,7.59,0,0,0,1.61-2.86,1.71,1.71,0,0,1,1.75-1.43,5.94,5.94,0,0,0,1.52-.3,41.13,41.13,0,0,0,4.82-1.7c2.12-1.06,4.41-1.79,6.36-3.2a9.47,9.47,0,0,1,1.26-.67,7.36,7.36,0,0,0,1.24-.67,20.85,20.85,0,0,0,2.39-2.11,23.5,23.5,0,0,0,1.84-2.46c.52-.75,1-1.5,1.48-2.3.86-1.51,1.65-3.07,2.51-4.59a7.79,7.79,0,0,0,1.06-4q-.06-33.52,0-67.06v-1.44a15.2,15.2,0,0,1-1.83-.3,3.82,3.82,0,0,0-2.34,0,2.08,2.08,0,0,1-1.16,0,4.68,4.68,0,0,0-2.7,0,9.69,9.69,0,0,1-2,.37c-1.12.07-2.24.08-3.35.16a56.37,56.37,0,0,1-6.09-.17c-.83,0-1.66-.2-2.49-.19-2.06,0-4.13.07-6.2.15a31.5,31.5,0,0,1-5.23,0,6.62,6.62,0,0,0-1.73.27,5.69,5.69,0,0,1-.83.07c-3.42,0-6.85-.07-10.27,0-2.65.08-5.3.16-8,.11-.91,0-1.83,0-2.74,0-2.82,0-5.63-.38-8.47-.19-2.14.14-4.3,0-6.45-.05-.47,0-.94,0-1.42,0-1.22.05-2.44.15-3.67.15-2.35,0-4.71-.05-7.06-.08-1.27,0-2.54,0-3.8,0s-2.38-.25-3.57-.24c-2,0-4.07.14-6.1.2-2.31.07-4.63.2-6.94.16s-4.56.21-6.85.08c-1.5-.09-3,.08-4.53,0s-3.06-.12-4.6-.05c-1.08.06-2.16,0-3.23.05a4.66,4.66,0,0,1-2.22-.34c-.24-.11-.61-.24-.77-.13-.84.56-1.8.21-2.67.45a2,2,0,0,1-1.81-.15.88.88,0,0,0-.77.06,3.28,3.28,0,0,1-3,.23,11.93,11.93,0,0,0-3.89-.39c-2.14,0-4.29,0-6.43,0a54,54,0,0,0-7.63.22,11.25,11.25,0,0,1-1.3,0c-1.51,0-3,0-4.52,0-1.67-.07-3.33.38-5,0a6.68,6.68,0,0,0-1.64.15,5.36,5.36,0,0,1-1.06,0c-.74-.09-1.49-.3-2.24-.32-2.83-.06-5.66,0-8.49-.09-.87,0-1.68,0-2.19.87-.09.15-.31.23-.48.34-1,.63-2.37.51-3.12,1.62-.05.07-.24,0-.34.08a2.26,2.26,0,0,0-.66.47c-.5.64-.8,1.48-1.72,1.71-.09,0-.15.18-.21.28a27.55,27.55,0,0,0-2.6,4.26c-.59,1.47-1.32,2.88-1.91,4.35a2.62,2.62,0,0,0-.06,1.52c.27,1.1.37,2.32,1.53,3a.87.87,0,0,1,.26.4,3.28,3.28,0,0,0,1.27,1.37,12.2,12.2,0,0,0,3.21,1.5,2.89,2.89,0,0,0,2.62-.05,7.83,7.83,0,0,1,2.73-.49.91.91,0,0,1,.63.27,1.46,1.46,0,0,1-.53,2.66c-1,.35-1.94.67-3.06,1.05a6.71,6.71,0,0,0,.26.95c.56,1.3.51,1.53-.62,2.4a10.27,10.27,0,0,0-3.32,4.07c-.17.4-.27.82-.44,1.21a20.88,20.88,0,0,0-1.81,4.88,42.56,42.56,0,0,1-1.48,4.74,17,17,0,0,0-.56,2.32c-.18,1-.3,2-.39,3.08a8.6,8.6,0,0,0,.07,1.52,26.42,26.42,0,0,1,.36,3.52,5.78,5.78,0,0,0,.54,2.77c.29.61.59,1.22.84,1.85.65,1.71,1.26,3.43,1.93,5.13q.88,2.26,1.89,4.5a2.71,2.71,0,0,0,.83,1.15,11.2,11.2,0,0,1,3,3.55,49.51,49.51,0,0,0,3.29,4,4.19,4.19,0,0,0,1.09.71c.43.27.89.5,1.29.81.69.52,1.35,1.09,2,1.62.33.26.68.5,1,.73a12.5,12.5,0,0,0,1.13.63c.21.11.52.1.65.26a2.55,2.55,0,0,0,1.85.69,4.83,4.83,0,0,1,2.22.76,5.65,5.65,0,0,0,3.68,1.17,1.42,1.42,0,0,1,.82.11,7.09,7.09,0,0,0,2.48.59,26,26,0,0,0,5.57.44c1.27-.07,1.8.37,2.2,1.61a26.37,26.37,0,0,1,.76,2.63,6.17,6.17,0,0,0,1.91,3.5,3.38,3.38,0,0,1,.89,1,4.23,4.23,0,0,0,2.32,1.68,7.58,7.58,0,0,0,3.79,1.24,1.16,1.16,0,0,1,.45.16,4.27,4.27,0,0,0,2.71.12,15.41,15.41,0,0,0,2.37-.81c1.24-.52,2.42-.85,3.46.39.11.13.36.14.59.22.08-.6.19-1.14.22-1.69a3.51,3.51,0,0,0-.5-2.63,1.75,1.75,0,0,1-.38-1.23,2.34,2.34,0,0,0-.58-1.85,1.08,1.08,0,0,1,.76-1.78,5.78,5.78,0,0,1,1.08,0c-.08-.19-.11-.3-.16-.4-.63-1.19-1.39-2.32-1.3-3.78,0-.37-.33-.77-.52-1.15a5.1,5.1,0,0,1-.49-.92c-.32-1.07-.88-1.43-1.79-.83a8,8,0,0,1-4.23,1c-.23,0-.53,0-.67.12a3.36,3.36,0,0,1-3.14.6,1.91,1.91,0,0,1-1.85-2,12,12,0,0,0-.21-2,14.66,14.66,0,0,1-.4-3.29c0-.31-.11-.74.05-.92.73-.82.57-1.78.61-2.73a1.28,1.28,0,0,1,1.42-1.28c1.33.18,2.67.4,4,.7a4.23,4.23,0,0,0,1.94.27,1.43,1.43,0,0,1,1,.3,1.33,1.33,0,0,0,1.23.26,5.41,5.41,0,0,1,2.82.23c1,.23,1.14.14,1.11-.87,0-1.53-.4-3.09.26-4.59a1.34,1.34,0,0,0,0-.35l.3-2.6c0-.19.14-.39.1-.56a4.59,4.59,0,0,1,.45-3,1.59,1.59,0,0,0,.17-.79c-.33-2.45.45-4.72,1.17-7a1,1,0,0,0-.2-1.09,3.38,3.38,0,0,0-.76-.54,2.29,2.29,0,0,1-1.33-2.22,9.64,9.64,0,0,0-.17-1.3,6.56,6.56,0,0,1-.16-1.75,6.69,6.69,0,0,1,3-4.91c.4-.26.84-.46,1.22-.75a2.38,2.38,0,0,1,2-.45c.92.22,1.82.59,2.74.73,1.76.27,2.84,1.6,4,2.66a4.09,4.09,0,0,1,1,4.21,6.9,6.9,0,0,1-1.34,2.47c-.59.78-1.27,1.48-1.92,2.22a1.7,1.7,0,0,0,.12.34,3.65,3.65,0,0,1,.77,2.43,5,5,0,0,0,.44,2,16.7,16.7,0,0,1,1.22,5.08,10.11,10.11,0,0,0,.14,1.91,13.21,13.21,0,0,1-.41,7.47,1,1,0,0,0,1,1.35c.48,0,.95-.11,1.43-.13,1.18,0,2.38-.29,3.46.35.45-.34.84-.76,1.36-.18.06.07.28,0,.41,0a2.71,2.71,0,0,1,.78-.22c1.58.14,3.14-.35,4.72-.09.17,0,.36-.15.55-.21a5,5,0,0,1,1.31-.46c1.91-.16,3.15.78,3,2.71-.07.87.05,1.75.06,2.62,0,1.44.3,2.88-.33,4.31a5.61,5.61,0,0,1-2.57,3.12c-.74-.33-1.37-.64-2-.89a9.19,9.19,0,0,1-2-.65,7.63,7.63,0,0,0-2.34-.83c-.8-.24-1.6-.46-2.41-.68l-2.88-.76a2.72,2.72,0,0,0-.39.55,6.06,6.06,0,0,1-1.3,2.25,1.37,1.37,0,0,0-.21,1.31,2.62,2.62,0,0,1-.06,2.94,3,3,0,0,0-.11,3.08,2.52,2.52,0,0,1-1.12,3.15c-.64.45-.92,1-.65,1.5a5.53,5.53,0,0,1,.23,3.61,5.5,5.5,0,0,0-.12,2,8,8,0,0,1,0,2.84,6.08,6.08,0,0,0,0,1.65.55.55,0,0,0,.8.47,4.45,4.45,0,0,1,2.28-.5c1.48-.15,2.88.73,2.54,2.53a4.48,4.48,0,0,0-.22.93,3,3,0,0,0,.29,1.1c.26.57.62,1.09.89,1.65.36.75.59,1.57,1,2.28a13.8,13.8,0,0,0,5.39,5.38c1.17.62,2.28,1.32,3.69,1.11a1.47,1.47,0,0,1,.59.05,13.22,13.22,0,0,0,4.38.42,5.63,5.63,0,0,0,3.11-1,3.48,3.48,0,0,1,1.85-.67,17.28,17.28,0,0,1,3.4.58,20.41,20.41,0,0,0,4.44.87,1.44,1.44,0,0,1,.59.05c.16.06.36.24.37.38a.57.57,0,0,1-.28.44,5.92,5.92,0,0,1-4.17.54,10.34,10.34,0,0,0-6.55.08,3.82,3.82,0,0,1-1.18.15,11.88,11.88,0,0,0-3.79.42,3.53,3.53,0,0,1-1.3,0c-.63,0-1.25-.14-1.88-.22a13.12,13.12,0,0,1-1.65-.24,21.19,21.19,0,0,1-4.57-1.65,13.43,13.43,0,0,1-4.31-3.51,37.92,37.92,0,0,1-2.7-4.3c-.33-.56-.86-1.07-.74-1.82-.83-.5-.82-1.31-.92-2.14a.66.66,0,0,0-1.24-.26,1.57,1.57,0,0,0-.37,1.07,7.28,7.28,0,0,1-.13,2.24,6.52,6.52,0,0,0,0,1.53,14.49,14.49,0,0,1,0,4.74,64.74,64.74,0,0,0-.55,7.6c-.05,1.46-.07,2.93-.06,4.39a11,11,0,0,0,.17,2.36,8.8,8.8,0,0,1,.07,3.43A8.21,8.21,0,0,0,308,318c0,.79.15,1.58.2,2.37,0,.51,0,1,0,1.55a72.86,72.86,0,0,1,0,7.39c-.1,1.27-.21,2.54-.21,3.81s.14,2.71.2,4.06c0,.42,0,.81.5,1s.83-.17,1.08-.54.31-.78.59-1a40.57,40.57,0,0,1,4-3.16c1.8-1.14,3.91-1.74,5.61-3.1a2.37,2.37,0,0,1,.32-.15,22.9,22.9,0,0,1,6-2.22,58.93,58.93,0,0,1,5.94-.83h3.41c.32-.84.49-.94,1.43-.83a19,19,0,0,0,2.37.23,2.22,2.22,0,0,1,2.07.74c.24-.42.37-.71.54-1a17.91,17.91,0,0,1,1.72-2.39,1.62,1.62,0,0,0,.59-1.34,3.74,3.74,0,0,1,.46-1.8c.62-1.41,1.58-2.67,1.85-4.25a4.37,4.37,0,0,1,.92-2,5.22,5.22,0,0,0,1-2,2.67,2.67,0,0,1,1.06-1.67,2.53,2.53,0,0,0,1-1.61,4.4,4.4,0,0,1,.63-1.24c.47-.77,1-1.51,1.48-2.27a.41.41,0,0,0,.07-.22c.06-1.52,1.15-2.58,1.74-3.86a9.23,9.23,0,0,1,1.1-1.52c-.26-.44-.1-.91.29-1.46a3.38,3.38,0,0,0,.72-3.25,1.78,1.78,0,0,1,.72-2.25c.81-.42.9-1.14,1.12-1.84.13-.45.21-.92.36-1.37.47-1.34,1-2.68,1.43-4a1.3,1.3,0,0,1,1.31-1,4,4,0,0,0,.63-.1c.22-.86.4-1.58.61-2.3.13-.43.12-.85-.31-1-.87-.35-1.47-1.26-2.55-1.18-.17,0-.36-.14-.54-.23-1.1-.55-2.24-1-3.3-1.66a6.29,6.29,0,0,0-3.27-.91c-.79,0-1.09-.57-1.48-1.05s-.17-.88.09-1.32c.12-.19.08-.47.17-.68a21.93,21.93,0,0,1,.85-2.07,11.3,11.3,0,0,1,.86-1.41c.62-.91.9-2.08,2.24-2.64a15,15,0,0,1,1.95,1c.93.66,1.76,1.46,2.66,2.16a4.73,4.73,0,0,0,1.58,1,1.17,1.17,0,0,1,.95,1,9.68,9.68,0,0,1,1.2.45c1.35.72,2.68,1.48,4,2.19.16.09.44,0,.65-.07a1.56,1.56,0,0,0,.06-.43,1.41,1.41,0,0,1,.94-1.71c.29-.11.5-.47.67-.76.63-1.06,1.22-2.14,1.83-3.21.21-.37.43-.74.64-1.12a8.53,8.53,0,0,1,.44-.85c.54-.78,1.08-1.58,1.69-2.31,1-1.25,1.7-2.79,3-3.82a2.14,2.14,0,0,0,.5-.93,3.46,3.46,0,0,1,2-2.19C381.1,258.57,381.67,258.26,382.31,258ZM270.36,268.68c.32.61.48,1,.7,1.32s.57.68.76,1.06c.81,1.56,1.54,3.15,2.37,4.69.63,1.16,1.39,2.25,1.26,3.66a1.22,1.22,0,0,0,.16.45,6.93,6.93,0,0,1,.73,3.1,9.46,9.46,0,0,0,0,2.26,9.61,9.61,0,0,1-.28,3.71,9.25,9.25,0,0,0-.23,1.54,10.22,10.22,0,0,1-.75,4.18,30.09,30.09,0,0,1-3,6.19c-.39.58-.76,1.18-1.18,1.75a10.13,10.13,0,0,1-3.31,2.88,3,3,0,0,0-1.48,1.56,4,4,0,0,1-2.53,2.34c-.73.31-1.46.63-2.17,1-1.12.55-1.25,1-.73,2.09.21.43.4.87.61,1.3.42.88.86,1.76,1.29,2.65s.84,1.77,1.27,2.65c.27.57.51,1.15.81,1.7.48.86,1,1.68,1.49,2.57.58,1.16,1.06,2.38,1.62,3.56.67,1.44,1.1,1.54,2.47.83.6-.31,1.27-.72,2-.09.13.12.43.07.65.07.8,0,1.59,0,2.38,0a9.45,9.45,0,0,0,3.14,0,1.74,1.74,0,0,1,.81.14c.38.1.75.26,1.14.33,1,.2,2.12.34,3.16.57a22.44,22.44,0,0,1,2.24.72,33,33,0,0,1,3.57,1.31,25.6,25.6,0,0,1,3.16,1.92c.73.47,1.39,1,2.12,1.51.54.34,1.13.58,1.86.95.14-2.18.3-4.16.39-6.13,0-1,0-2,0-3,.07-2.67.2-5.33.25-8,0-1.07-.12-2.15-.14-3.22,0-2.72-.06-5.43-.09-8.14,0-.52-.11-1-.09-1.55.09-2.31.28-4.61.31-6.92,0-1.74-.16-3.49-.21-5.23,0-.75,0-1.51.07-2.26,0-.19.08-.38.08-.57,0-2-.12-3.91-.1-5.86a7.94,7.94,0,0,0-.68-3.47.86.86,0,0,0-1-.59,4.07,4.07,0,0,0-.92.27,1,1,0,0,1-1.11-.12c-.62-.61-1.16-.41-1.8,0a4.38,4.38,0,0,1-3.39,1.05c-.06,0-.13.07-.39.22-.56,2.15-1.15,4.45-1.74,6.75-.46,1.8-.93,3.6-1.37,5.41-.34,1.39-.62,2.8-.93,4.19s-.65,2.79-1,4.19a4.58,4.58,0,0,1-.22.92,18,18,0,0,0-1.07,4.14c-.65,2.62-1.26,5.25-1.88,7.87-.24,1-.48,2-.75,3a4.91,4.91,0,0,1-1.42,2.45c-.42.37-.87.22-.95-.33a4.28,4.28,0,0,1,.07-1.18c.22-1.78,1.2-3.33,1.51-5.12.43-2.45,1.31-4.81,1.79-7.28.42-2.12,1.21-4.17,1.67-6.3.35-1.59.94-3.15,1.13-4.76.22-1.83,1-3.5,1.27-5.31.13-.89.45-1.76.66-2.64.26-1.08.5-2.16.76-3.24.18-.74.42-1.46.55-2.2a.93.93,0,0,0-.29-.78c-.87-.36-1.79-.61-2.67-.94a18.79,18.79,0,0,1-2.4-1,9.77,9.77,0,0,1-3.2-2.8,16.62,16.62,0,0,1-2.85-4.79,2.63,2.63,0,0,1-.07-2.29,1.11,1.11,0,0,0-.16-1.06c-.22-.2-.73-.13-1.11-.09s-.91.17-1.37.22A12.56,12.56,0,0,1,270.36,268.68ZM246.07,515.6a15.63,15.63,0,0,0,1.72-1.36c1-1.06,1.93-2.19,2.9-3.28a50.37,50.37,0,0,0,5-7,16.91,16.91,0,0,1,1.16-1.65c1.05-1.3,2.12-2.57,3.17-3.87a4.17,4.17,0,0,0,.38-.61c.58-1,1.13-2,1.74-3,1-1.56,1.93-3.11,2.93-4.65.6-.93,1.25-1.84,1.87-2.77,1.33-2,1.93-4.41,3.71-6.12a.53.53,0,0,0,.15-.32c0-.68.47-1.08.85-1.53a20.65,20.65,0,0,0,2-2.48,4,4,0,0,1,1.31-1.57,6.84,6.84,0,0,1,.41-1.24c1-1.63,2.09-3.19,2.92-4.89a29.88,29.88,0,0,1,2.78-4.82,2.33,2.33,0,0,0,.34-.5,22.18,22.18,0,0,1,2.61-4.36c1.3-2.1,1.17-2.84-.91-4.3-1.09-.77-2.35-1.33-3-2.59,0,0-.15,0-.38-.08a8.47,8.47,0,0,0-.76.92c-.45.7-.78,1.48-1.28,2.13-1.38,1.79-2.33,3.84-3.65,5.67-.88,1.21-1.55,2.57-2.36,3.84a20.85,20.85,0,0,0-1.91,2.85c-.46,1.08-1.42,1.72-1.88,2.79a17.78,17.78,0,0,1-1.89,2.7,15.63,15.63,0,0,0-1,1.75c-.34.67-.6,1.4-1,2-.63,1-1.37,2-2,2.95s-1.14,1.82-1.68,2.75c-.32.54-.54,1.15-.89,1.67-.83,1.25-1.71,2.47-2.57,3.71-.18.27-.31.55-.47.83-1.32,2.36-2.16,5-3.72,7.2a2.89,2.89,0,0,0-.31.77c-.64,2.41-2.14,4.43-3.1,6.69,0,.07-.12.11-.16.18-.52.84-1.05,1.68-1.56,2.52-.23.37-.42.76-.63,1.14a11.91,11.91,0,0,0-.76,1.46c-.27.67-.41,1.38-.66,2.05A4.22,4.22,0,0,0,246.07,515.6Zm56.57,25.9h-.14c.06.63.11,1.26.2,1.89s.23,1.15.36,1.73c.29,1.24.57,2.47.9,3.7.06.2.38.38.61.44s.29-.3.41-.49c.3-.51.58-1,.87-1.54s.59-.75.62-1.15a26.73,26.73,0,0,0,0-3.69,12.25,12.25,0,0,1,0-4.27,3.91,3.91,0,0,0,0-1.4c0-.31-.12-.62-.13-.93,0-.87,0-1.75,0-2.63a26.35,26.35,0,0,1,.11-3.33c.12-.93.64-1.81.13-2.77a.43.43,0,0,1,0-.35,4.16,4.16,0,0,0,.1-2.32c-.07-1.81.12-3.63,0-5.46-.06-1.23.28-2.49.22-3.77-.11-2.14,0-4.29,0-6.44,0-1.87-.2-3.74-.23-5.61a21,21,0,0,1,.31-5.7,14.89,14.89,0,0,0,.12-3.07c.08-2.19.18-4.38.27-6.57,0-.55,0-1.1,0-1.65,0-1.9,0-3.81.11-5.71a51.75,51.75,0,0,0,0-5.57c0-.81,0-1.63,0-2.45a11.5,11.5,0,0,0,0-1.66,1,1,0,0,0-.86-1,11.79,11.79,0,0,1-1.91-.61c-.65-.28-1.27-.65-1.89-1s-1-.2-1.11.59c0,.12,0,.24,0,.36-.08,1.87-.14,3.74-.26,5.61a24.71,24.71,0,0,0,.24,6.87,2,2,0,0,1,0,.6c-.05,1.91-.11,3.82-.16,5.73q-.12,4.73-.23,9.45c0,1.28,0,2.56,0,3.83-.06,2.23-.21,4.46-.2,6.69,0,2.83.15,5.66.2,8.49s0,5.5.08,8.25c0,1.39.13,2.78.18,4.17,0,.27-.09.55-.1.83a3.68,3.68,0,0,0,0,1.37,12.55,12.55,0,0,1,.7,4.46c0,1.15.13,2.31.2,3.46C302.51,539.76,302.58,540.63,302.64,541.5ZM298.37,382a2.47,2.47,0,0,0,.57,0,14.44,14.44,0,0,0,4-3.2c.18-.19.1-.68.06-1s-.25-.77-.25-1.16c0-1.7-.39-3.41.19-5.09a.93.93,0,0,0,0-.24c.28-2.49-.45-5-.16-7.46a.48.48,0,0,0,0-.12c-.19-1.77-.51-3.53-.53-5.3,0-2.63.16-5.26.25-7.89.07-1.83.15-3.66.19-5.49,0-.63-.06-1.26-.05-1.89,0-.91.13-1.83.09-2.73-.11-2.27-.29-4.53-.44-6.8-.07-1.07-.16-2.14-.21-3.22-.08-1.62-.14-3.25-.21-4.87,0-.84-.09-1.67-.11-2.51a75.67,75.67,0,0,1-.32-7.84c.15-2,.56-4,.16-6.05a.6.6,0,0,1,0-.35c.61-1.29.31-2.68.47-4a41.9,41.9,0,0,0,.24-5.6c0-1.63-.2-3.25-.33-4.87,0-.6-.15-1.18-.19-1.78,0-.76,0-1.52,0-2.27,0-1.08,0-2.15,0-3.23a7.89,7.89,0,0,1,.25-3.24,4.16,4.16,0,0,0,.18-1.18,38.28,38.28,0,0,0-.26-6.77c-.06-.63-.33-.93-.92-.82a3.17,3.17,0,0,1-1.47-.16c-.45-.12-.95,0-1.1.47a13.53,13.53,0,0,0-.67,3,23.34,23.34,0,0,0,.31,3.91c.11.82.5,1.62.55,2.44.08,1.45,0,2.91,0,4.37,0,1.31,0,2.63.05,3.94,0,.75,0,1.51,0,2.26s.08,1.58.1,2.36c0,.36-.1.72-.09,1.07,0,1.19.15,2.38.13,3.57,0,1.71-.16,3.42-.22,5.13,0,.64.05,1.27.06,1.91a35.54,35.54,0,0,0,.14,4.51,12.22,12.22,0,0,1,.06,3.91,4.89,4.89,0,0,0,0,1.08c0,.67.08,1.34.08,2,0,3.54-.32,7.08.1,10.62a6.26,6.26,0,0,1-.13,1.42c-.17,1.34-.45,2.67-.49,4-.1,2.74-.07,5.49-.08,8.24,0,1.87,0,3.75,0,5.63,0,2.23-.12,4.46-.2,6.69a13.9,13.9,0,0,0-.09,1.43c.16,2,.28,4.09.38,6.15.05,1.19.15,2.38.23,3.57a14.8,14.8,0,0,1,.18,2.72c-.3,2.37-.31,4.75-.51,7.12-.06.75-.12,1.51-.14,2.26C298.25,381,298.33,381.46,298.37,382Zm28.79,81.62a10.09,10.09,0,0,1,.4,1,16.72,16.72,0,0,0,1.19,3.49,27.29,27.29,0,0,1,1.3,2.92,8.27,8.27,0,0,0,.39,1.25c.83,1.35,1.72,2.66,2.59,4,.39.6.79,1.19,1.16,1.8.61,1,1.08,2,1.66,3a16.88,16.88,0,0,1,1.47,3.1,7.11,7.11,0,0,0,.54,1.19c.61,1,1.56,1.87,1.77,3.16a2.63,2.63,0,0,0,.76,1.3,25.83,25.83,0,0,1,3.39,4.68c.87,1.33,1.44,2.84,2.66,3.93a1.49,1.49,0,0,1,.31.63,6.1,6.1,0,0,0,1.33,2.36,4.5,4.5,0,0,1,1.28,2.76,2.49,2.49,0,0,0,.31.89,23.86,23.86,0,0,1,1.56,3,7.55,7.55,0,0,0,2,3c.57.54,1.08,1.16,1.65,1.7a14.06,14.06,0,0,0,1.71,1.48c.92.66,1.39.51,1.81-.51a1.69,1.69,0,0,0,.13-1c-.32-1.18-.4-2.45-1.3-3.42a2.8,2.8,0,0,1-.37-.86c-.38-1-.7-1.94-1.16-2.85s-1.24-2-1.79-3.08c-.94-1.78-1.82-3.61-2.73-5.41-.21-.43-.43-.84-.63-1.27-.89-1.91-1.71-3.86-2.68-5.72-.63-1.23-1.52-2.33-2.23-3.52-.51-.85-.91-1.76-1.36-2.65-.57-1.13-1.08-2.29-1.72-3.37s-1.29-1.81-1.93-2.72a1.49,1.49,0,0,1-.23-.65,7.68,7.68,0,0,0-1.21-3.08c-1-1.58-1.9-3.21-2.79-4.85s-1.91-3.58-2.79-5.4c-.76-1.58-1.39-3.21-2.12-4.81-.35-.77-.79-1.51-1.28-2.43-.5.59-.87,1-1.25,1.49s-.63.72-1,1.05c-.75.69-1.51,1.37-2.29,2a1.2,1.2,0,0,0-.23,1.52c.17.39.42.75.65,1.16Zm37.18-157.43c.81-1.11,1.05-2.49,2.35-3.17.48-.25.39-.85-.09-1.19s-1.13-.71-1.69-1.09c-1.07-.73-1.38-.63-2,.47-1,1.87-2.11,3.72-3.19,5.56-.64,1.09-1.34,2.14-2,3.24-.34.62-.5,1.35-.83,2-1,1.9-2,3.78-3.05,5.67-.58,1.09-1.12,2.2-1.76,3.25a41.93,41.93,0,0,0-3.09,6.18,23.66,23.66,0,0,1-2,3.92,23.94,23.94,0,0,0-2.58,4.54,2,2,0,0,1-.38.6,4.46,4.46,0,0,0-.93,1.81c-.18.66-.91,1.16-1.39,1.74-.09.12-.09.3-.16.45s-.28.57-.43.85c-.55,1-1.14,2-1.66,3s-1,2.07-1.49,3.11a17,17,0,0,0-1.32,3,7,7,0,0,1-1.05,2.37c-.22.33-.48.63-.67,1-1.39,2.54-2.75,5.1-4.15,7.63-1.16,2.09-2.38,4.14-3.55,6.22a8.48,8.48,0,0,0-.42,1.16,6.89,6.89,0,0,0,4.76-.47c.18-.08.3-.35.4-.55.43-.93.79-1.9,1.27-2.8.66-1.22,1.49-2.36,2.11-3.6a68.4,68.4,0,0,0,3.79-7.68,17.85,17.85,0,0,1,1.29-2.68,24.72,24.72,0,0,1,3.24-5.41.89.89,0,0,0,.26-.39c.22-1.36,1.3-2.26,1.81-3.46.25-.58.44-1.18.71-1.75q1-2.1,2-4.18,1.31-2.6,2.65-5.18a7.4,7.4,0,0,0,1-1.74,13.37,13.37,0,0,1,1.92-4.18,3.69,3.69,0,0,1,.58-.89A3.13,3.13,0,0,0,356,321c0-.23.24-.49.39-.73s.34-.53.49-.81c.8-1.51,1.57-3,2.4-4.52s1.87-3.2,2.76-4.82a5.33,5.33,0,0,1,2.58-2.81c.18-.07.29-.34.46-.56ZM246.4,299.86a2.56,2.56,0,0,0-.74,0c-.63.21-1.26.46-1.87.71-.8.34-.88.57-.5,1.38.14.28.31.55.46.83.48.87.95,1.74,1.42,2.61.17.32.31.65.48,1,1,1.77,2,3.51,2.91,5.32s1.79,3.89,2.7,5.83c.42.89.91,1.75,1.37,2.62a3.57,3.57,0,0,0,.3.38c.34.53.7,1.05,1,1.6.61,1.11,1.18,2.24,1.77,3.36.24.46.47.91.69,1.37s.47,1.09.73,1.62.67,1.17,1,1.77c.81,1.56,1.57,3.13,2.42,4.67.93,1.71,2,3.36,2.89,5.06.5.89.91,1.83,1.38,2.73.73,1.41,1.57,2.76,2.17,4.21a17,17,0,0,0,2.11,4.22,1.3,1.3,0,0,1,.17.44,26.16,26.16,0,0,0,3.39,6.26,32.48,32.48,0,0,1,3.15,5.17c.67,1.68,1.88,3,2.47,4.72a14.27,14.27,0,0,0,2,3c.37.54.53,1.25,1.17,1.6a19.57,19.57,0,0,0,1.23-1.65c.31-.53.94-.95.79-1.74l-1.55.69a2.79,2.79,0,0,1-1-2.26,3.38,3.38,0,0,0-.19-1.27c-.57-1.27-1.23-2.5-1.83-3.75a12.84,12.84,0,0,1-1.12-2.6,18.9,18.9,0,0,0-2.44-5c-.37-.65-.9-1.21-1.25-1.87-.76-1.44-1.41-2.94-2.17-4.38-.36-.68-.89-1.27-1.3-1.94-.86-1.38-1.64-2.82-2.55-4.17a11.75,11.75,0,0,1-1.31-2.51,16.66,16.66,0,0,0-1.07-2c-.66-1.3-1.24-2.64-2-3.91a37.87,37.87,0,0,1-2.5-4.71,7.42,7.42,0,0,0-1.07-2,21.5,21.5,0,0,1-2.52-3.74c-.61-1.2-1.34-2.33-2-3.52-.3-.55-.47-1.18-.76-1.74-.52-1-1.12-1.9-1.62-2.88q-1-1.91-1.83-3.87c-.55-1.27-1-2.58-1.54-3.85-.3-.74-.66-1.45-1-2.16C247.94,303.71,246.52,302.1,246.4,299.86Zm59.65,76.63c.85-.52.62-1.2.61-1.87-.05-1.78-.11-3.58,0-5.36a46.54,46.54,0,0,0,.26-6.78c-.1-1.26,0-2.53,0-3.8a39.56,39.56,0,0,0-.1-4.75,30.91,30.91,0,0,1-.27-6.52c.16-1.89.19-3.79.26-5.69,0-.82.06-1.65,0-2.47-.06-1.15-.23-2.29-.28-3.44a33.71,33.71,0,0,0-.24-5.24c-.45-2.14.57-4.17.11-6.26,0,0,0-.07,0-.11.06-.79.17-1.58.17-2.37,0-1.32,0-2.64,0-4a18.94,18.94,0,0,0-.06-3.11c-.42-2.23-.1-4.46-.1-6.68s.07-4.52.16-6.78c.09-1.87-.12-3.73-.18-5.59,0-1.12.06-2.26,0-3.4q-.07-3.4-.1-6.81c0-.27.13-.55.13-.82a24.36,24.36,0,0,0,0-3.82,12.58,12.58,0,0,1-.08-3.3,9.09,9.09,0,0,0,0-1.88.76.76,0,0,0-.51-.52.77.77,0,0,0-.61.37,4.24,4.24,0,0,0-.5,1.71c.17,3.08-.56,6.11-.37,9.2.15,2.42-.08,4.86-.1,7.29,0,1.36.14,2.71.13,4.07,0,1.86-.22,3.73-.11,5.59.19,3.16-.55,6.26-.39,9.41.07,1.39-.08,2.78-.12,4.18,0,1.66,0,3.33-.09,5,0,1.16-.16,2.31-.12,3.46.08,1.82.29,3.64.4,5.46.12,2,.22,3.94.28,5.91.08,2.43.12,4.85.14,7.28,0,3.07.1,6.15,0,9.22-.09,2.63.4,5.21.4,7.82,0,1.82.24,3.67-.47,5.44a.66.66,0,0,0,0,.46,9.92,9.92,0,0,1,.41,3.42,7.39,7.39,0,0,1,.08,2.14C304.45,374.14,305.11,375.28,306.05,376.49ZM342.4,337.6c-.72-.94-.2-1.72.17-2.48.26-.53.69-1,.95-1.51,1-2.09,1.74-4.33,3-6.35,1.06-1.77,1.86-3.7,2.78-5.55a7.63,7.63,0,0,1,.39-.75c1.26-2,2.42-4.16,3.52-6.31.25-.49.62-.93.86-1.43.77-1.6,1.44-3.26,2.27-4.83a29,29,0,0,1,2.89-4.76c.87-1.08,1.21-2.39,2.06-3.45.55-.69.32-1.26-.3-1.76s-2-.78-2.44-.33A16.52,16.52,0,0,0,357,300.2c-.44.7-.8,1.45-1.21,2.18-.12.2-.3.38-.4.58-1.48,2.81-2.72,5.73-4.32,8.48a29.43,29.43,0,0,0-2.7,5.66A25.61,25.61,0,0,1,347,320a26,26,0,0,0-1.52,3.09,14.85,14.85,0,0,1-1.38,2.9c-.59,1-1.27,2-1.78,3.07-1.08,2.26-2,4.6-3.13,6.83-.64,1.27-1.22,2.55-1.77,3.86a61.06,61.06,0,0,1-3.09,6.29c-1.21,2.13-2.13,4.41-3.5,6.48-1.27,1.91-2.24,4-3.36,6a25.32,25.32,0,0,1-4.11,6.08,5.93,5.93,0,0,0-.47.53,1.2,1.2,0,0,0-.11,1.45c.61,1.19,2.41,1.22,3.44,0a1.58,1.58,0,0,1,.25-2,2.18,2.18,0,0,0,.26-.53c.85-1.71,1.72-3.41,2.53-5.14.9-1.9,2.25-3.55,3-5.56a31.44,31.44,0,0,1,2-3.92,16.28,16.28,0,0,0,1.19-2.05c.6-1.59,1.76-2.83,2.56-4.29a21.66,21.66,0,0,0,1.37-2.49,3.33,3.33,0,0,1,1.21-1.57C341.21,338.61,341.77,338.11,342.4,337.6Zm-19-83a1.43,1.43,0,0,0-.41-.06,6.45,6.45,0,0,1-3.51.22c-.15-.06-.38.11-.57.13-1.66.1-3.29.58-5,.22a2,2,0,0,0-1.06.05c-1.86.67-3.8.23-5.69.35s-4.06,0-6.09,0c-.76,0-1.52,0-2.27-.1a13.31,13.31,0,0,0-4.27-.22,2,2,0,0,1-.92-.16,32,32,0,0,0-6-.79,5.7,5.7,0,0,1-1.14-.26c-1-.34-1.64.09-1.66,1.14,0,1.36,0,2.72,0,4.07,0,1.12.39,1.41,1.49,1.15a2.44,2.44,0,0,0,.46-.14c2.45-1,5.05-1,7.61-1.19,1.41-.11,2.86.14,4.24-.09,2.08-.34,4.18-.07,6.25-.39a3,3,0,0,1,.6,0c.82.09,1.64.2,2.46.27l5.23.43a16.52,16.52,0,0,1,2,.19c2,.41,4,.86,6.05,1.3.5.11,1,.27,1.5.35a.86.86,0,0,0,1.13-.76,4.31,4.31,0,0,0,0-1,10.49,10.49,0,0,1-.13-2.36A5.9,5.9,0,0,0,323.39,254.62Zm33.76,16.79a2.45,2.45,0,0,0-.47.35c-.74,1.11-1.48,2.22-2.19,3.35-.34.52-.18.88.43,1.05a13.55,13.55,0,0,1,1.85.48c1.19.54,2.34,1.18,3.51,1.79.49.26.93.61,1.43.84.75.35,1.53.63,2.3,1a18.5,18.5,0,0,0,2.27.95,20.37,20.37,0,0,1,5,2.2c.51.29,1,.67,1.49.93.88.44,1.84.74,2.7,1.22,1,.58,2,1.28,3,1.86,1.33.75,2.59,1.67,4,2.42,1.14.64,2.23,1.38,3.37,2a11.59,11.59,0,0,1,2.74,1.8c.53.55,1.64.37,1.78-.29a7.24,7.24,0,0,1,1.81-3.42.79.79,0,0,0-.38-1.34,6.61,6.61,0,0,1-3.49-1.27c-.58-.5-1.57-.53-2.29-.91-1.82-1-3.94-1.32-5.53-2.76a1.41,1.41,0,0,0-.66-.24,16.36,16.36,0,0,1-3.86-1.56c-1.52-.75-3.09-1.41-4.64-2.12L368,278.23a.56.56,0,0,1-.29-.9,2.09,2.09,0,0,0-2-.76,2.07,2.07,0,0,1-1.17-.09c-1.17-.67-2.29-1.42-3.43-2.15-.36-.24-.67-.64-1.06-.75A5.57,5.57,0,0,1,357.15,271.41ZM261.28,319l-2-4.14c-.5-1-1-2.08-1.48-3.12a33.87,33.87,0,0,0-2.29-4.44c-1.09-1.65-2.07-3.38-3-5.1a21.77,21.77,0,0,1-1.12-2.51,3.33,3.33,0,0,0-1.25-1.65,1.1,1.1,0,0,0-.63,1.22,5.59,5.59,0,0,0,.7,2.6,25.91,25.91,0,0,1,1.53,3.34c.88,2.08,2,4.07,2.95,6.11.43.89.74,1.84,1.16,2.75.85,1.88,2.11,3.55,2.75,5.54a.72.72,0,0,0,.2.29c1.6,1.53,2.34,3.65,3.64,5.39.47.62.7,1.43,1.17,2.06a41.93,41.93,0,0,1,2.88,5.57,42.35,42.35,0,0,0,2.13,3.85,14.74,14.74,0,0,1,2.12,4.87,9.81,9.81,0,0,0,1.55,3.45c.32.45.63.91.91,1.39.39.69.71,1.42,1.12,2.09a30.86,30.86,0,0,1,2,3.2c.64,1.43.82,3,1.6,4.44.49.89.67,2,1.2,2.82a35.73,35.73,0,0,1,2.86,5.31,29.84,29.84,0,0,0,2,3.51,3,3,0,0,0,.63-3.31,15.55,15.55,0,0,0-1.5-3.1,39.14,39.14,0,0,1-3.23-6.23,48.77,48.77,0,0,0-4.63-8.45,2.23,2.23,0,0,1-.4-1.09,2.43,2.43,0,0,0-.66-1.48,11.48,11.48,0,0,1-1.08-1.82c-.62-1.28-1.18-2.58-1.78-3.88a10.55,10.55,0,0,0-.93-1.91,2.28,2.28,0,0,1-.59-1.49c0-.2-.23-.42-.36-.63s-.26-.36-.37-.56c-.94-1.7-1.89-3.4-2.79-5.12s-1.6-3.19-2.39-4.79a6.32,6.32,0,0,0-1-1.88c-1-.9-.66-2-.81-3.1ZM371,277.43a11.61,11.61,0,0,0,1.31.79c1.55.69,3.13,1.32,4.68,2,1.22.56,1.79.37,2.34-.87.25-.58.37-1.33.81-1.7,1.29-1.07,1.41-2.71,2.18-4a18.44,18.44,0,0,0,1.18-3.35,12.17,12.17,0,0,0,1.16-4.19,1.44,1.44,0,0,1,.37-1,1.52,1.52,0,0,0,.28-1.86,1.57,1.57,0,0,1,0-1.24,1,1,0,0,0-.84-1.48,10.3,10.3,0,0,0-2,.18.82.82,0,0,0-.74.8,2.23,2.23,0,0,1-1.24,2c-.22.09-.33.42-.48.65a3,3,0,0,1-.48.82,9.37,9.37,0,0,0-2.06,2.89c-.6,1-.42,1.69.68,2.1.52.2.72.44.55,1-1.05.78-1.92-.49-3.09-.22.71.69.87,1.66,1.87,1.95.36.1.65.4.46.82a.64.64,0,0,1-.9.35,7.06,7.06,0,0,1-1.32-.73,1.08,1.08,0,0,0-1.27-.22,5.07,5.07,0,0,0,1.89,1.79.73.73,0,0,1,.51.93.75.75,0,0,1-1.08.32c-.32-.16-.61-.38-.92-.54-.54-.29-1.09-.56-1.63-.84-.71,1.29-.61,1.48.59,1.54a1.34,1.34,0,0,1,.85.32c.48.6.87,1.28,1.31,1.95a1.15,1.15,0,0,1-1.64-.06,3.8,3.8,0,0,0-.94-.66,10.81,10.81,0,0,0-1.71-.48C371.6,277.16,371.44,277.28,371,277.43Zm-137.9-13.56a10.82,10.82,0,0,1-.69.94c-.4.45-.79.42-1.2,0a1,1,0,0,1,.16-1.54c.22-.15.46-.26.78-.44a4.93,4.93,0,0,0-1-1.77,11.06,11.06,0,0,1-1.3-1.84,10.79,10.79,0,0,0-1-1.33,2.16,2.16,0,0,0-3.23.39s0,.07,0,.17.21,0,.28-.05c.38-.24.74-.32,1.06.08a.92.92,0,0,1,0,1.3c-.21.23-.51.37-.74.58s-.51.71.05,1.1l1.36-.65c.79,1.08.8,1.14-.14,2a.93.93,0,0,0-.32,1.26c.24,0,.47-.07.7-.07a.86.86,0,0,1,.85,1.28.74.74,0,0,1-.29.36,1.13,1.13,0,0,0-.43,1.65c.57,1.25.69,2.71,1.76,3.72a.9.9,0,0,1,.2.43,20.87,20.87,0,0,1,1,5,4.54,4.54,0,0,0,.49,1.7c.46,1,.94,1.13,1.92.63s2-1,3-1.51a16.36,16.36,0,0,0,1.39-1c-.67-.25-1.11.58-1.87-.05a3.68,3.68,0,0,1,.48-1.42,6,6,0,0,1,1.72-1.24c.49-.26.46-.55.35-1.14-.43.23-.76.41-1.09.57-.78.39-1.21.35-1.49-.1s-.19-.92.43-1.43c.42-.35.89-.63,1.46-1-.75-1.44-1.17-3.07-2.41-4-.7.28-1.22.52-1.75.69a7.55,7.55,0,0,1-1.72.41c-.6.05-.84-.4-.59-.95a1.94,1.94,0,0,1,1.13-1.18,4,4,0,0,0,.87-.39C233.89,264.69,233.83,264.35,233.13,263.87ZM303.06,253a21,21,0,0,1,2.53,0c1.21.15,1.59-.19,1.26-1.33a4.33,4.33,0,0,1,0-2.57,4,4,0,0,0,.17-1.54c-.14-1.9-.3-3.81-.55-5.7a20.37,20.37,0,0,0-.84-4,5.59,5.59,0,0,1-.5-2.4,3.32,3.32,0,0,0-1-2.88l-2.27.67c-.62.19-.64.61-.43,1.09a1.61,1.61,0,0,0,.27.1,1,1,0,0,1,1,1.09c0,.6-.41.66-.87.74-.93.16-1.14.63-.81,1.74,1.47.3,1.68.6,1.35,2.08-.31,0-.66.06-1,.07-.78,0-1,.2-1.06.93a3.53,3.53,0,0,0,.17.87c1.81.21,2.15.62,1.64,2-.44,0-.91,0-1.38,0-.82,0-.92.24-.52,1.13a2.23,2.23,0,0,1,2.3.77,1,1,0,0,1,.17.85c-.05.18-.43.34-.67.36-.55,0-1.1,0-1.66,0-.86,0-1.09.25-.82,1.06a2.72,2.72,0,0,0,.46.59,1,1,0,0,1,1.76,0c.24.28.69.36,1,.57a8.11,8.11,0,0,1,.79.68,5.66,5.66,0,0,1-1.23.23c-.59,0-1.17-.22-1.76-.23a1.4,1.4,0,0,0-.93.37c-.14.13,0,.52,0,.86l1.44-.49c.35.33.59.71.93.85A1.55,1.55,0,0,1,303.06,253Zm66.46,44.6c.16-.24.32-.47.49-.7.69-1,1.37-2,2.08-3,.39-.54.87-1,1.23-1.59.63-1,.47-1.48-.58-1.9s-2.36-.91-3.54-1.37a1.27,1.27,0,0,1-.53-.27,2.75,2.75,0,0,0-1.58-.75c-.81-.22-1.61-.46-2.41-.7s-1.23,0-1.57.8a24.6,24.6,0,0,1-1.85,4.36c-.39.57-.23,1,.39,1.25,1,.42,2,.75,2.94,1.21,1.32.64,2.6,1.35,3.89,2C368.8,297.09,369.08,297.3,369.52,297.58Zm-71.29-70.85c.17.76.11,1.72.55,2.24a4.52,4.52,0,0,0,2.93,1.86,6.57,6.57,0,0,1,1.41.2,1.75,1.75,0,0,0,1.83-.57,6,6,0,0,0,1.73-2.66,4.83,4.83,0,0,0,.16-3.16c-.13-.37-.5-.92-.77-.93-.94,0-1.45-.74-2.17-1.09a14.55,14.55,0,0,0-2-.76.84.84,0,0,0-.68,0,6.83,6.83,0,0,0-2,1.66A5.35,5.35,0,0,0,298.23,226.73Zm88.85,23c-1.25-.15-2.34,0-2.76,1.35a7.22,7.22,0,0,0-.16,1.75c0,.35.15.74,0,1a3.06,3.06,0,0,0,.48,2.92c.39.6.81,1.18,1.2,1.78s.77.85,1.53.47a3.69,3.69,0,0,0,1-.65,7.16,7.16,0,0,1,3-1.87,1.71,1.71,0,0,0,.79-.5,3.07,3.07,0,0,0,.31-3.37,3.73,3.73,0,0,0-2.38-2.13C389.06,250.26,388.17,249.53,387.08,249.75Zm-139.8,36.17-10.53,5.16a4.28,4.28,0,0,0,1.18,3.29c.51-.09.93-.31,1.16-.17a2.85,2.85,0,0,0,3-.23c.48-.27,1-.45,1.5-.68l4.17-2a1.32,1.32,0,0,0,.49-.33c.15-.24.38-.59.32-.82C248.19,288.76,248.19,287.24,247.28,285.92ZM220,251.19a2.09,2.09,0,0,0,1.44,2.27,2.4,2.4,0,0,1,.8.66,2.66,2.66,0,0,0,2.42,1,4.23,4.23,0,0,0,4-4.07,3.15,3.15,0,0,0-1.59-3,9.82,9.82,0,0,0-2.69-.91,3.93,3.93,0,0,0-1.7.35A3.68,3.68,0,0,0,220,251.19Zm78.51,17.7c1.37.05,2.87.21,4.36.13s3,.31,4.56.05c.11-1.19.23-2.25.29-3.32.05-.89-.15-1.15-1-1.24-1.39-.14-2.77-.2-4.16-.31-.67,0-1.34-.14-2-.16-.34,0-.83,0-1,.16a16,16,0,0,0-1.27,2,.89.89,0,0,0,0,.46C298.31,267.31,298.39,268,298.5,268.89Zm76.85,21.41c1-.9,1.24-1.48.69-2a9.41,9.41,0,0,0-1.64-1.14c-.34-.21-.73-.32-1.07-.52-1.11-.66-2.21-1.35-3.32-2a7.28,7.28,0,0,0-.77-.31c-.44-.2-.85-.43-1.29-.62a9.52,9.52,0,0,0-1.45-.49.79.79,0,0,0-.64.19,1.41,1.41,0,0,0,.36,2.37c.91.46,1.86.85,2.79,1.28l2.49,1.15c.78.37,1.58.73,2.34,1.13C374.36,289.6,374.83,290,375.35,290.3Zm-125.13,2.1L248,293.54l-1.25.61c-.22.09-.45.15-.66.26-1.46.84-2.69,2-4.27,2.69-.34.14-.83.56-.55,1a1.18,1.18,0,0,0,1,.5,16.13,16.13,0,0,0,3.5-1.3,9.17,9.17,0,0,1,1.68-.79,3.92,3.92,0,0,0,1.24-.39c.62-.49,1.53-.59,1.83-1.56A3,3,0,0,0,250.22,292.4Zm-14.59-3.22c.37-.17.8-.35,1.22-.56.92-.46,1.82-1,2.76-1.39,1.7-.75,3.43-1.44,5.13-2.18a10.66,10.66,0,0,0,1.77-.93c.29-.19.72-.48.44-1s-.6-.3-.95-.16c-1,.4-2,.8-3,1.18s-2,.7-3,1.09a20,20,0,0,0-5.2,3c-.11.09-.06.53.06.71S235.29,289.08,235.63,289.18Zm64.92-16.47c.77,0,1.25,0,1.72,0,1.34.06,2.67.16,4,.19a1.13,1.13,0,0,0,.9-.36c.13-.21,0-.67-.16-.95a1.75,1.75,0,0,0-1.73-.83,8.15,8.15,0,0,1-1.78-.1,12.22,12.22,0,0,0-3.77.2,1.49,1.49,0,0,0-.9.54,1.22,1.22,0,0,0-.27.94,1.15,1.15,0,0,0,.85.45A4.61,4.61,0,0,0,300.55,272.71Zm2-12c-1,1-2.34.67-3.58.49a2,2,0,0,0-1.4.28c0,.54.28.67.68.68.22,0,.45-.06.67,0,1,.1,2,.24,3.05.3,1.84.12,3.72-.3,5.55.3a.86.86,0,0,0,.67-.31c.43-.54.29-1.09-.35-1.74A8.59,8.59,0,0,1,302.57,260.66Zm61.79,36.2c-1.35-.63-2.49-1.17-3.65-1.66-.17-.07-.6.06-.62.16a1.1,1.1,0,0,0,.15.74c.08.14.34.17.52.26.49.24,1,.45,1.49.73,1.12.65,2.22,1.36,3.35,2a7.75,7.75,0,0,0,1.63.75,1.19,1.19,0,0,0,.95-.27.9.9,0,0,0,.12-.86,2.31,2.31,0,0,0-.94-.67,5.28,5.28,0,0,0-1.47-.48c-.75-.1-1.14-.43-1-1.31l-.24,0Zm-55,199.62-.57,2C310.15,497.78,310.25,497.37,309.36,496.48ZM196.55,397.85c-.4.69-.28,1,.17,1,.11,0,.25-.13.38-.2ZM355.83,503c.18-.68.18-.68-.51-.95ZM223.11,344.25c.1.36,0,.82.59,1.06A1,1,0,0,0,223.11,344.25Zm63,110c0,.76,0,.76.79.85Zm22.07,47.44c.78-.07.78-.07.71-.6ZM205.56,576c.45-1.81.93-3.62,1.35-5.43s.78-3.41,1.06-5.13c.25-1.53.35-3.08.52-4.63a7.72,7.72,0,0,1,.12-.82c.27-1.37.54-2.74.83-4.1.42-2,.83-4,1.28-6.06.31-1.4.69-2.79,1-4.18a1.48,1.48,0,0,0,0-.47,7.4,7.4,0,0,1,.35-3.52,4.68,4.68,0,0,0,.23-1.41,46.28,46.28,0,0,1,.64-7.71,5.7,5.7,0,0,0,.1-.83c.09-1,.14-2,.27-3,.33-2.41.7-4.81,1.05-7.22a5,5,0,0,1,.12-1.42c1-2.05.72-4.36,1.37-6.5.51-1.7.74-3.49,1.08-5.24.1-.47.2-.93.26-1.41.21-1.65.39-3.31.62-5,.07-.51.32-1,.4-1.5.18-1.22.31-2.45.48-3.67.34-2.36.7-4.72,1-7.08,0-.31,0-.63,0-.94a10.53,10.53,0,0,1,.06-1.26c0-.27.16-.54.19-.81a35.11,35.11,0,0,1,1.12-7.05,5.59,5.59,0,0,0,.12-.82c.16-1.07.31-2.13.49-3.19a10.45,10.45,0,0,0,.43-2.1c-.08-2.7,1.2-5.18,1.18-7.86a.5.5,0,0,1,0-.12c.42-2,.86-4,1.24-5.95.17-.85.17-1.74.34-2.6.67-3.32,1.41-6.62,2-9.94.29-1.52.42-3.07.64-4.61a14.53,14.53,0,0,0,.31-2.24c-.06-3.23.82-6.31,1.35-9.44a59.33,59.33,0,0,1,1.7-6.2c.18-.61.51-1.19.64-1.8.61-2.92,1.22-5.84,2-8.73a2.31,2.31,0,0,0,0-.83,6.71,6.71,0,0,1,.29-2.95,3.37,3.37,0,0,0,.2-1c0-2.08.77-4,1.21-5.95a5.72,5.72,0,0,1,.36-.75c.36-.93.73-1.85,1-2.8a1.09,1.09,0,0,0-.07-.91,12.58,12.58,0,0,0-1.45-1.1,3,3,0,0,0-1.28,2.45,11.75,11.75,0,0,1-.23,1.77c-.3,1.56-.64,3.12-.95,4.68-.21,1.09-.39,2.19-.57,3.29-.07.43-.1.86-.16,1.29-.18,1.34-.27,2.7-.55,4-.4,1.83-1,3.62-1.41,5.44-.61,2.63-1.13,5.28-1.72,7.92-.52,2.36-1.42,4.65-1.38,7.12a2.23,2.23,0,0,1,0,.23,28.17,28.17,0,0,0-.61,6.28,4.58,4.58,0,0,1-.09.83l-1.29,6.31c-.39,1.91-.79,3.82-1.16,5.73s-.74,3.83-1.11,5.75c-.11.54-.22,1.09-.34,1.64A54.12,54.12,0,0,1,221,469a5.79,5.79,0,0,0-.07.6c-.47,2.9-.95,5.81-1.42,8.72-.41,2.55-.83,5.1-1.2,7.65-.28,1.93-.46,3.87-.73,5.8-.2,1.42-.51,2.83-.71,4.25-.38,2.71-.63,5.45-1.08,8.15-.38,2.36-1,4.68-1.45,7-.38,1.8-.84,3.58-1.08,5.39-.33,2.44-.46,4.91-.93,7.34-.38,2-.54,4-.78,6-.35,3-.65,5.94-1,8.9-.34,2.53-.76,5-1.2,7.54a23,23,0,0,1-.85,4.56,14.78,14.78,0,0,0-.66,2.66c-.19,1.09-.29,2.21-.47,3.31-.49,2.94-1.12,5.87-1.49,8.82a64.65,64.65,0,0,1-1.8,8.75,2.26,2.26,0,0,0,.21,2.28C204.77,576.67,205.38,576.71,205.56,576Zm189.91-2c-2-.51-3.9-.91-5.36-2.21.57-1.05.89-1.22,1.79-.91a1.88,1.88,0,0,0,1.47,0,4.53,4.53,0,0,1,1.88-.15c.18,0,.36.33.6.56.2-.74.78-.77,1.31-.59a4.79,4.79,0,0,0,2.77.31c.1,0,.23.07.34.09,1.46.23,1.46.23,3.09-.44-.87-.19-1.76-.37-2.63-.58a3.08,3.08,0,0,1-1.1-.4c-.2-.14-.23-.52-.33-.8l.9-.29c-.06.12,0,.06,0,0,.31-2,.31-2,2.26-2.2a1.91,1.91,0,0,1,.47,0A28.38,28.38,0,0,1,409,567a6.82,6.82,0,0,1,2,1.18c.62.47.58.8,0,1.36a3.33,3.33,0,0,1-2.11.72c-.93.15-1.89.18-3.11.28,1.41.81,2.76.67,4.07.95l.32.93a1.09,1.09,0,0,1-1.32.42c-.5-.12-1-.1-1.52-.24a.85.85,0,0,0-1.16.53c-.84-.83-1.77-.38-2.69-.45a1.3,1.3,0,0,0,.06.2c1.27.15,2.55.29,3.81.47a9.41,9.41,0,0,0,1.72.39c.59,0,1.08-.07,1.4.58.85-.6,1.79-.43,2.66-.59a10.72,10.72,0,0,1,3.4.16c.86.12,1,.35,1.1,1.28-1.35.68-2.72-.08-4.08-.05a28.89,28.89,0,0,1-4.21-.56l.82,1.83.89-1,1.27,1.18.66-.78a8.56,8.56,0,0,1,3.78,1.59c.22.15.53.38.72.32,1.65-.52,3.15.23,4.68.56a10.16,10.16,0,0,1,1.46.69,4.74,4.74,0,0,0,1.48.44,2.76,2.76,0,0,1,2.12,1.54c.33.46.12.85-.31,1.21a4.66,4.66,0,0,1-3.2,1.08c-1.95,0-3.9-.05-5.84-.19a25.07,25.07,0,0,1-3-.59,11.7,11.7,0,0,0-1.75-.32c-1.6,0-3.14-.48-4.7-.68-1.31-.17-2.6-.76-4-.46a.49.49,0,0,1-.24,0c-1.18-.25-1.18-.25-1.22,1a28.79,28.79,0,0,0,.43,6.42,6.63,6.63,0,0,1,.08,1.78,12.41,12.41,0,0,0,.32,4,1.91,1.91,0,0,1-2,2.48h-.24c-1.31,0-1.78-.5-1.34-1.69a4.92,4.92,0,0,0,.16-2.28c-.16-1.69-.1-3.41-.24-5.11s.12-3.19-.36-4.76a4.29,4.29,0,0,1,.09-1.41c0-.5,0-.93-.68-1.06a28.81,28.81,0,0,0-5.79-.21c-.13.52,0,.72.45.71s.58.2.47.51-.37.32-.59.42a.64.64,0,0,1-.47,0c-1.42-.57-3-.73-4.26-1.69,0-.54,1.15-.21.64-1,1.67-.21,3.24-.42,4.82-.59a4.75,4.75,0,0,1,1.05.11c1.19.12,2.38.27,3.57.34.57,0,.86-.31.82-.77a.79.79,0,0,0-.87-.79c-1.88.41-3.78-.12-5.69.2a21.52,21.52,0,0,1-4.73-.15c-.76,0-1.51-.15-2.26-.21-.46,0-1-.09-1-.62s.37-.78.8-.91a9.32,9.32,0,0,1,1.85-.42c.78-.08,1.58,0,2.36,0a2.19,2.19,0,0,0,.92-.18,1.4,1.4,0,0,1,1.46-.13c.1.06.24.13.33.09C393.82,574.75,394.52,574.44,395.47,574Zm7.92,3.9a7.08,7.08,0,0,0-.09.79c0,.91.1,1,1,1.14.24,0,.48,0,.72,0,1.46.17,2.93.31,4.39.5,1.7.22,3.39.47,5.09.7.2,0,.44,0,.58.07a4,4,0,0,0,2.3.5c1.07.05,2.14.23,3.21.28a8,8,0,0,0,3.53-.45c.59-.24.74-.89.27-1.2a4.31,4.31,0,0,0-1.37-.65c-1-.24-2.11-.37-3.16-.56a38.46,38.46,0,0,0-6.59-.93c-1.19,0-2.37-.27-3.56-.31-1.79-.06-3.59,0-5.38,0C404,577.84,403.72,577.91,403.39,577.94Zm-3.91-1.86c-.27-.16-.5-.41-.72-.41a32.17,32.17,0,0,0-3.68.13A6.68,6.68,0,0,1,393,576a3.88,3.88,0,0,0-1,0v.31c.37,0,.74,0,1.11,0a14,14,0,0,1,2.58.19,17.43,17.43,0,0,0,3.59-.18S399.35,576.26,399.48,576.08Zm8.83.41a21.44,21.44,0,0,0-2.11-.65,9.7,9.7,0,0,0-2-.18c-.42,0-.89.09-1,1C404.94,576.2,406.57,577.13,408.31,576.49Zm-4.21-8.15c1.57.69,2.54.7,3.55.15-.79-.8-1.8-.47-2.69-.58C404.76,567.88,404.52,568.12,404.1,568.34Zm-8.41,3.91a5.76,5.76,0,0,0,3.64.7l-.13-.7ZM408.13,575l.07-.25-.72-.19-.07.24Zm-178-218.39c-.5-.64-1.31-.65-1.61.08a11.3,11.3,0,0,0-.65,2.51c-.15.92-.17,1.87-.26,2.8a.64.64,0,0,1-.13.33c-.86,1-.78,2.32-.86,3.51-.14,1.83-.8,3.54-1,5.35,0,.39-.32.74-.39,1.12-.28,1.52-.53,3-.77,4.57s-.38,2.92-.6,4.37c0,.35-.19.69-.27,1-.44,2.06-.92,4.11-1.3,6.18-.22,1.21-.23,2.46-.41,3.68-.21,1.45-.5,2.89-.74,4.34-.37,2.21-.7,4.42-1.09,6.62-.42,2.42-.88,4.85-1.34,7.27-.11.58-.36,1.15-.43,1.73a33.9,33.9,0,0,1-1.05,6.24c-1,3-1.11,6.26-2,9.32-.68,2.27-1,4.64-1.56,7-.72,3.22-1.49,6.43-2.16,9.66-.47,2.26-.8,4.54-1.2,6.8-.62,3.4-1.25,6.8-1.86,10.2-.26,1.41-.47,2.83-.73,4.24-.21,1.13-.46,2.25-.67,3.38s-.46,2.26-.59,3.41c-.23,2-.4,4-.57,6.06a2.58,2.58,0,0,0,.15,1c.2.5.7.63,1,.22a2.81,2.81,0,0,0,.59-1.37c.15-1.42.19-2.86.28-4.29a4.17,4.17,0,0,1,.05-.71c.33-1.48.69-3,1-4.43.24-1.21.42-2.43.63-3.65.16-1,.31-2,.48-3.06a7.81,7.81,0,0,0,.3-1.62,18.73,18.73,0,0,1,.67-4.6c.31-1.72.82-3.4,1.14-5.12.44-2.34.77-4.71,1.2-7.06.21-1.17.56-2.31.82-3.47.43-1.9.81-3.81,1.25-5.7s1-3.94,1.42-5.92c.3-1.39.35-2.86.77-4.21.74-2.33,1.08-4.73,1.59-7.1.43-2,.7-4,1.08-6,.45-2.39,1-4.77,1.42-7.16.24-1.33.31-2.68.54-4,.64-3.6,1.3-7.19,1.86-10.8s1.38-7,2.1-10.53c.11-.51.49-1,.45-1.48a16,16,0,0,1,.53-3.52,5.5,5.5,0,0,1,.43-1.47,8.78,8.78,0,0,0,.77-3.1,7.61,7.61,0,0,1,.25-1.15,6.53,6.53,0,0,0,.34-1.85c-.23-1.89.81-3.48,1-5.26,0-.2.29-.36.41-.56.23-.39.43-.79.64-1.18A4.83,4.83,0,0,0,230.14,356.65ZM386.19,482.38a7,7,0,0,0,1.1-3.48,22.84,22.84,0,0,1,.82-5.16c.74-2.47,1.18-5,1.78-7.53.34-1.43.74-2.84,1.13-4.25.18-.69.39-1.37.6-2,.16-.49.38-1,.52-1.46.53-2,1-4,1.59-6a2.28,2.28,0,0,0,.06-1.27c-.15-.58-.24-1.25.54-1.63.21-.11.27-.54.37-.83s.13-.69.24-1c.47-1.43,1.42-2.68,1.55-4.23,0-.23.21-.43.28-.66.15-.44.27-.9.38-1.35a7.35,7.35,0,0,1,.2-1.06,34.11,34.11,0,0,0,1.6-4.59,27.37,27.37,0,0,1,1.64-4.21,17.38,17.38,0,0,0,1.63-5.82,3.32,3.32,0,0,1,.22-.93c.77-2.21,1.59-4.41,2.3-6.64.65-2,1.13-4.14,1.76-6.19.82-2.7,1.74-5.37,2.56-8.07a51,51,0,0,0,2-7,1.29,1.29,0,0,1,.2-.43A25.76,25.76,0,0,0,413,391c.41-1.4.73-2.84,1.09-4.25a3.4,3.4,0,0,1,.12-.34c.47-1.39,1-2.78,1.4-4.17.17-.53-.09-.83-.65-.85a1.36,1.36,0,0,0-1.38,1.1c-.49,1.47-1,2.94-1.44,4.42s-.78,3-1.2,4.5c-1.14,4.14-2.33,8.26-3.76,12.31-.55,1.58-1,3.18-1.56,4.77s-1.11,3.07-1.59,4.62-.75,2.92-1.18,4.36c-.52,1.79-1.14,3.56-1.66,5.35a8.77,8.77,0,0,0-.41,2.32,1.52,1.52,0,0,1-.33,1.18,2.08,2.08,0,0,0-.32.76c-.46,1.39-.94,2.78-1.37,4.19a6.72,6.72,0,0,0-.24,1.48c0,.47.07.91-.58,1.1-.23.07-.35.55-.53.87.27.28,1.06,0,.64.73l-.82-.26a15.92,15.92,0,0,0-1.05,3.12c-.23,2-1.25,3.66-1.72,5.54-.29,1.21-1.21,2.28-.75,3.64a.39.39,0,0,1-.05.35c-.84,1-.55,2.69-1.82,3.54-.15.09-.14.44-.18.67-.18.94-.31,1.89-.55,2.81-.31,1.15-.75,2.26-1.06,3.41a19.44,19.44,0,0,0-.66,2.6,10.11,10.11,0,0,1-1.18,3.6,2.36,2.36,0,0,0-.37,2.15c.09.23-.09.6-.2.89-.35.89-.78,1.74-1.06,2.65-.37,1.25-.63,2.54-.94,3.82-.07.31-.13.62-.17.94-.18,1.3-.32,2.6-.55,3.89-.18,1-.5,2-.68,3a2,2,0,0,0,1.22,2.22A9.59,9.59,0,0,1,386.19,482.38ZM231.73,496c-.18.65-.33,1.3-.5,2-.1.34-.23.67-.31,1-.3,1.39-.33,2.81-.66,4.21-.51,2.16-.76,4.38-1.19,6.57q-.93,4.8-1.95,9.58c-.33,1.55-.84,3.07-1.13,4.63-.39,2-.65,4.08-.93,6.13-.1.71-.06,1.44-.17,2.15-.28,1.8-1,3.53-.86,5.4a3.21,3.21,0,0,1-.15.57,31.44,31.44,0,0,0-.89,5.63,18.64,18.64,0,0,1-.39,2.95c-.36,2.24-.78,4.46-1.1,6.71a56.11,56.11,0,0,1-.7,5.68c-.75,3-1,6-1.65,9-.36,1.59-.62,3.19-1,4.78-.64,2.87-1.35,5.73-2,8.61-.45,2.14-.8,4.29-1.18,6.45-.49,2.78-1,5.56-1.42,8.35a28.94,28.94,0,0,0-.33,7.26c0,.24-.07.5,0,.71s.27.45.44.46a.67.67,0,0,0,.52-.36,2.87,2.87,0,0,0,.14-.93,30.21,30.21,0,0,1,.4-4.16c.27-1.21.38-2.41.53-3.62.07-.55.07-1.11.17-1.66.13-.74.35-1.46.49-2.19s.25-1.73.4-2.59c.39-2.15.79-4.31,1.21-6.45.19-1,.47-2,.63-3a25.61,25.61,0,0,1,1.84-7,2.45,2.45,0,0,0,.17-.94,32.7,32.7,0,0,1,.87-5.65c.26-1.36.73-2.68,1-4,.41-2.59.68-5.21,1-7.81s.75-5,1.16-7.54a12.29,12.29,0,0,0,.44-1.71,32,32,0,0,1,.5-4.49q.31-2.54.66-5.07c.14-1.1.28-2.21.46-3.3s.39-1.86.55-2.8c.23-1.45.35-2.92.66-4.35.43-1.94,1-3.85,1.49-5.78q.82-3.54,1.55-7.11a31.21,31.21,0,0,0,.81-4.94,37.89,37.89,0,0,1,.86-4.66c.37-2.36.95-4.68,1.39-7a1.88,1.88,0,0,0-.72-1.94A3.91,3.91,0,0,0,231.73,496Zm151-55.6a7.87,7.87,0,0,1,1-1.73,13.13,13.13,0,0,0,2.74-4.41c.59-1.38,1.22-2.74,1.82-4.12a10.9,10.9,0,0,0,.34-1.15l.63-2.28c.1-.34.17-.69.28-1s.27-.74.42-1.1.45-.91.6-1.4c.5-1.67.95-3.37,1.46-5,.61-2.06,1.31-4.09,1.9-6.15.64-2.24.9-4.6,2.09-6.67a2.59,2.59,0,0,0,.12-.58c.57-2,1-4,1.75-5.94.86-2.27,1.13-4.72,2.32-6.89a20.13,20.13,0,0,0,1.11-3.34c.07-.22.23-.41.32-.63a10.91,10.91,0,0,0,1.27-3.18,14.12,14.12,0,0,1,1-4,5.25,5.25,0,0,0,.28-1.17,5,5,0,0,1,.83-2.21,8.77,8.77,0,0,0,1.14-4,.87.87,0,0,0-.28-.7,1,1,0,0,0-.88.06c-.41.39-1,.69-1,1.39a3.85,3.85,0,0,1-.49,1.2,28.7,28.7,0,0,0-2.41,6.48,44.5,44.5,0,0,1-1.22,4.49c-.62,1.88-1.36,3.73-2,5.61s-1.25,3.76-1.86,5.65c-.55,1.7-1.06,3.41-1.61,5.1-.86,2.65-1.71,5.3-2.62,7.93-.45,1.3-.28,2.8-1.22,3.94a.47.47,0,0,0,0,.24c.06,1.46-.61,2.76-1,4.13-.45,1.72-1.4,3.29-1.48,5.13,0,.18-.28.34-.4.53a2.29,2.29,0,0,0-.47.88,9.82,9.82,0,0,1-1.53,4.81,2.42,2.42,0,0,0-.21.79,5.22,5.22,0,0,1-.21.8c-.44,1-.94,1.9-1.35,2.87-.61,1.48-.71,3.18-1.9,4.41a1.37,1.37,0,0,0-.23.55.92.92,0,0,0,.61,1.25C382.55,440.74,382.66,440.59,382.76,440.42ZM328.94,481.7a23.37,23.37,0,0,1-.88,4.45,10.18,10.18,0,0,0-.33,2.36c-.19,1.7-.33,3.41-.57,5.1s-.59,3.29-.88,4.94c-.5,2.9-1,5.81-1.49,8.71s-1.25,6-1.56,9c-.26,2.52-1,4.91-1.37,7.38-.27,1.86-.91,3.63-1.24,5.46-.49,2.74-.8,5.51-1.52,8.21a10.36,10.36,0,0,0-.25,1.76,10.47,10.47,0,0,1-.22,2.47,15,15,0,0,0-.65,2.77c-.62,3.52-1.32,7-2,10.55-.18,1-.19,2.06-.32,3.09s-.36,2.28-.55,3.42c-.11.71-.2,1.42-.34,2.12-.53,2.61-1.11,5.22-1.59,7.84-.29,1.56-.44,3.15-.6,4.73a3.11,3.11,0,0,0,.23.95,3,3,0,0,0,1.65-2.6c.13-1.47.35-2.93.59-4.38.16-1,.42-1.94.64-2.91.3-1.36.65-2.71.9-4.08.38-2,.68-4,1-6,.12-.7.31-1.4.41-2.1.27-2.06.46-4.12.76-6.17.41-2.86.89-5.72,1.37-8.58.21-1.26.52-2.49.76-3.74.44-2.39.84-4.78,1.29-7.16.25-1.33.59-2.64.87-4a48.31,48.31,0,0,1,1.14-5.37c.68-2.08.55-4.26,1-6.36.37-1.78.43-3.62.71-5.43.19-1.29.54-2.57.76-3.86.41-2.47.78-4.94,1.17-7.41.28-1.77.62-3.53.81-5.3a16.94,16.94,0,0,1,.71-3.86,16.23,16.23,0,0,0,.51-2.32c.12-.66.18-1.33.3-2,.2-1.13.44-2.26.64-3.4a1.39,1.39,0,0,0-1.05-1.75A9.76,9.76,0,0,0,328.94,481.7Zm-128.5-66c.33.18,1.12-.25,1.25-.66a12.73,12.73,0,0,0,.36-1.6c.12-.71.19-1.42.31-2.12.23-1.33.48-2.66.69-4,.07-.42,0-.86.07-1.29.2-1.29.43-2.57.64-3.86a.6.6,0,0,0,0-.35c-.36-.77.08-1.38.34-2.05a4.9,4.9,0,0,0,.43-1.57,8.36,8.36,0,0,1,.73-3.23,3.18,3.18,0,0,0,.32-1c.12-1.31.41-2.59.63-3.87.59-3.41,1.16-6.82,2.06-10.17.42-1.57.61-3.2.9-4.8s.56-3.45.92-5.16c.45-2.14.51-4.35,1.21-6.44a2.4,2.4,0,0,0,.07-1.75,1,1,0,0,1,0-.57c.39-1.21.79-2.41,1.18-3.61.28-.87.59-1.73.8-2.61.39-1.58.68-3.19,1.08-4.77a3,3,0,0,0-.26-1.82,1,1,0,0,0-1.09-.77,1.21,1.21,0,0,0-1.12.92,7.48,7.48,0,0,0-.2.94c-.35,2.36-.57,4.75-1.09,7.07-.29,1.29,0,2.79-1,3.87-.05.05,0,.16,0,.24-.54,2-.26,4.18-.93,6.22a36.61,36.61,0,0,0-.85,4,13.5,13.5,0,0,0-.37,1.62,42.72,42.72,0,0,1-1.17,6.56c-.16.73-.23,1.49-.4,2.22-.43,1.89-.91,3.77-1.33,5.67s-.67,3.51-1.05,5.26c-.24,1.13-.6,2.23-.83,3.37-.61,3.12-1.19,6.24-1.77,9.37-.09.5-.15,1-.19,1.53-.2,2.26-.39,4.52-.59,6.78,0,.56-.12,1.11-.21,1.89C200,415.25,200.18,415.6,200.44,415.74ZM238,422.52c-.6,3.12-1.15,6.25-1.69,9.38-.33,1.84-.61,3.7-.93,5.54-.23,1.32-.46,2.64-.74,3.95-.44,2-.92,4-1.38,6.06-.37,1.62-.8,3.24-1.08,4.88-.5,2.86-.89,5.73-1.38,8.59-.25,1.49-.64,3-.95,4.43-.43,2.07-.83,4.13-1.26,6.19-.61,2.83-1.55,5.6-1.66,8.53,0,.43-.2.85-.25,1.29q-.39,2.83-.75,5.68c-.08.62-.12,1.25-.2,1.88s-.16,1,.37,1.37a1.23,1.23,0,0,0,1.05-1.17c.06-.35.08-.72.16-1.06.25-1.17.56-2.32.78-3.49s.34-2.13.5-3.19c0-.28,0-.56.09-.83.1-.74.16-1.49.31-2.22.28-1.44.65-2.87.89-4.32a32.82,32.82,0,0,1,1-4.79,18.15,18.15,0,0,0,.38-2.59,12.71,12.71,0,0,1,.35-1.48,9,9,0,0,0,.34-.89c.18-1.62.7-3.16.87-4.8a86,86,0,0,1,1.65-9.4,53.52,53.52,0,0,1,2-8.07,3.34,3.34,0,0,0,.14-.7c.24-1.65.47-3.31.73-5q.57-3.42,1.18-6.82c.45-2.5.91-5,1.42-7.49.23-1.12.15-1.45-1.09-2.23C238.5,420.79,238.14,421.64,238,422.52Zm7.86.43a9.61,9.61,0,0,1-.21,1.77c-.35,1.58-.79,3.14-1.11,4.72-.24,1.13-.3,2.29-.52,3.43-.35,1.75-.79,3.49-1.17,5.23-.71,3.23-1.4,6.46-2.1,9.69a5.58,5.58,0,0,0-.1.59c-.14,1-.25,2-.42,2.94-.59,3.21-1.2,6.41-1.8,9.61a2.41,2.41,0,0,1-.19.8,4,4,0,0,0-.51,2.41,4.26,4.26,0,0,1-.13.94c-.54,2.4-1.1,4.8-1.65,7.2-.19.82-.35,1.63-.51,2.45-.32,1.69-.64,3.37-.91,5a.82.82,0,0,0,.3.66.7.7,0,0,0,.64-.06,1.62,1.62,0,0,0,.53-.74c.32-1.11.62-2.22.84-3.34.36-1.84.65-3.69,1-5.53.18-1,.36-1.95.57-2.92a13.48,13.48,0,0,0,.42-1.6,10,10,0,0,1,.66-3,3.62,3.62,0,0,0,.18-.82,17.56,17.56,0,0,1,.49-3.18c.82-2.44.87-5,1.4-7.51s.81-4.87,1.3-7.28c.41-2,1-3.94,1.43-5.91.55-2.4,1.05-4.81,1.57-7.21.15-.66.25-1.33.4-2,.47-1.93,1-3.85,1.42-5.79a7,7,0,0,0,.13-1.3,1,1,0,0,0-1-1.13A2.24,2.24,0,0,0,245.82,423ZM422,375.63c-.27.66-.45,1.36-.68,2-.44,1.27-.9,2.54-1.34,3.81s-.93,2.62-1.31,4a28.94,28.94,0,0,0-1.26,4.84,2.39,2.39,0,0,1-.19.57c-.93,2.7-1.88,5.39-2.78,8.1-.55,1.65-1,3.33-1.51,5a2.3,2.3,0,0,0-.13,1.06,5,5,0,0,1-1.16,3.89c-.22.33-.6.69-.57,1,.11,1.39-1,2.39-1,3.74a7,7,0,0,1-.33,1.61,5.45,5.45,0,0,1-.3.76c-.16.36-.36.7-.49,1.07-.45,1.35-.9,2.7-1.32,4.06-.51,1.66-1,3.33-1.46,5,1.14.45,1.61.28,2.05-.61a14.38,14.38,0,0,0,1-3.16c.38-1.62,1.05-3.17,1.47-4.79.47-1.8,1.4-3.48,1.34-5.42a3,3,0,0,1,.34-1c.25-.67.53-1.32.76-2s.37-1.37.6-2a23.13,23.13,0,0,0,1.06-2.91,68.82,68.82,0,0,1,2.44-8.23c.47-1.39,1.06-2.75,1.47-4.17.49-1.71.74-3.5,1.31-5.19.85-2.51,1.27-5.18,2.61-7.52a1.57,1.57,0,0,0,.09-.23l1.15-4.21A1.64,1.64,0,0,0,422,375.63Zm-41.82,55.79a15.87,15.87,0,0,0,1.48-2.67c.44-1.23.59-2.55.95-3.81.55-1.95,1.16-3.88,1.78-5.81.33-1,.77-2,1.12-3,.5-1.47.93-3,1.44-4.43.93-2.71,1.92-5.39,2.83-8.11.66-2,1.18-4,1.85-5.91a19,19,0,0,0,1-3.51,24.73,24.73,0,0,1,1.24-4c.26-.79.54-1.58.8-2.37.37-1.13.71-2.27,1.11-3.39.82-2.32,1.69-4.62,2.5-6.95a46.41,46.41,0,0,1,2.62-7,2.28,2.28,0,0,0,.21-2.05c-.44-.22-.83-.2-1,.27a15.06,15.06,0,0,1-1.31,3.29.47.47,0,0,0,0,.35,1.07,1.07,0,0,1-.35,1.07,3.83,3.83,0,0,0-.61,1c-.49,1.22-1,2.44-1.41,3.68q-1.36,4-2.66,8c-.41,1.25-.76,2.51-1.11,3.77a12.57,12.57,0,0,0-.91,3.75,8.75,8.75,0,0,1-1,3c-.34.92-.77,1.8-1.08,2.73-.59,1.81-1.11,3.64-1.69,5.46a25.81,25.81,0,0,0-1.34,4.16,18.52,18.52,0,0,1-1.22,3.82,12,12,0,0,0-1,3.27,5.91,5.91,0,0,1-.46,1.34c-.34,1-.72,1.93-1,2.92s-.57,2.22-.85,3.33c-.38,1.57-1.34,3-1.34,4.67a.92.92,0,0,1-.28.64c-.87.7-.7,1.68-.82,2.76C379.9,431.6,380.12,431.56,380.19,431.42ZM381.61,298a25.54,25.54,0,0,0-1.48,3.76c-.33.88-.62,1.79-1,2.67-.47,1.12-1.09,2.19-1.5,3.34-.82,2.31-1.53,4.66-2.29,7a2.43,2.43,0,0,0-.08.47,6.12,6.12,0,0,1-1,2.89c-.8,1.36-1.68,2.69-2.4,4.09s-1.28,2.81-1.86,4.24-1.22,3.17-1.83,4.75-1.23,3.26-1.83,4.89a6.53,6.53,0,0,0-.35,1.14,1.09,1.09,0,0,0,.08.67c.36.64,1.05.55,1.47-.22a58,58,0,0,0,2.4-5.69c1.18-2.91,2.4-5.8,3.59-8.7.43-1.06.84-2.14,1.26-3.21.5-1.29,1-2.58,1.53-3.86.48-1.13,1-2.23,1.52-3.35.2-.47.3-1,.48-1.46.74-1.93,1.59-3.82,2.22-5.79.42-1.31,1.3-2.44,1.48-3.84a.77.77,0,0,1,.17-.32c1.08-1.67,1.56-3.63,2.5-5.38.36-.67.08-1.15-.76-1.7A12.59,12.59,0,0,0,381.61,298ZM317.35,518.11c.1-.55.22-1.09.34-1.63.2-.85.46-1.69.61-2.54.21-1.1.3-2.21.51-3.3a56.85,56.85,0,0,1,2.26-9.37c.07-.19.08-.39.13-.58l1-3.68c.13-.5.33-1,.43-1.49.32-1.59.61-3.2.92-4.79.21-1.1.43-2.19.65-3.28s.37-1.95.57-2.92c.44-2.1.87-4.2,1.34-6.3a4.75,4.75,0,0,1,.48-1.32,3,3,0,0,0,.25-2.53c-.1-.3-.43-.79-.58-.76a1.94,1.94,0,0,0-.92.61c-.12.11-.13.34-.18.53s-.15.59-.23.88a14.46,14.46,0,0,0-1,3.29c-.07,1.9-.73,3.66-1,5.51-.08.67-.13,1.35-.25,2-.24,1.4-.51,2.8-.78,4.2-.11.55-.28,1.08-.41,1.63-.21.84-.41,1.69-.6,2.54a50.25,50.25,0,0,1-1.37,5.91c-1.16,3.29-1.7,6.71-2.59,10.05-.13.5-.14,1-.27,1.51-.46,1.65-1,3.28-1.41,4.94-.19.78-.41,1.67.49,2.38C317,519.36,317.17,519.13,317.35,518.11Zm-3.11-8.88c.15-.73.37-1.45.57-2.17.12-.42.3-.82.38-1.25.5-2.45.95-4.91,1.47-7.36.62-2.92,1.31-5.82,1.94-8.74.45-2.09,1.08-4.14,1.41-6.26.27-1.81.78-3.58,1.18-5.36.33-1.43.64-2.86,1-4.29a1.54,1.54,0,0,1,.24-.54,2,2,0,0,0,0-2.26.9.9,0,0,0-.73-.44,1,1,0,0,0-.66.55,18.45,18.45,0,0,0-.66,2.53c-.57,3.13-1,6.29-1.68,9.41-.94,4.35-2,8.67-3.05,13-.75,3.25-1.53,6.49-2.17,9.76a3.15,3.15,0,0,1-1.19,2.06c1.36.56.48,1.79.88,2.63C314,510.39,314.12,509.85,314.24,509.23Zm60.31-207.54c-.65,1.66-1.26,3.34-1.94,5-.77,1.86-1.3,3.81-2.12,5.65-1.06,2.36-2.08,4.74-3,7.15-.76,1.92-1.38,3.89-2.05,5.85-.44,1.27-.87,2.55-1.27,3.83a3.76,3.76,0,0,0-.2,1.28.66.66,0,0,0,1.17.43,3.63,3.63,0,0,0,.68-1.09c.86-2.23,1.67-4.46,2.52-6.69.6-1.56,1.3-3.08,1.84-4.66.43-1.27.58-2.64,1.51-3.71a2,2,0,0,0,.27-.66c.76-2,1.58-4.06,2.26-6.13a26.86,26.86,0,0,1,1.82-4.52,1.88,1.88,0,0,0-.43-2.64C374.93,300.71,374.74,301.2,374.55,301.69Zm-5.36,166.88c.2-.09.51-.12.59-.27a30.44,30.44,0,0,0,1.82-3.72c.58-1.64,1-3.36,1.4-5.05a103.49,103.49,0,0,1,2.86-10.34,16.66,16.66,0,0,0,.4-1.62c.34-1.3.67-2.61,1-3.9.16-.58.41-1.13.54-1.71.3-1.27.55-2.55.84-3.83.16-.73.37-1.45.58-2.17.32-1.1.67-2.2,1-3.3,0-.18-.12-.4-.22-.71-.27.22-.54.33-.61.51a8.41,8.41,0,0,0-.81,2.35,6.3,6.3,0,0,1-1,3.48,2.49,2.49,0,0,0-.23.8,12.75,12.75,0,0,1-.47,1.6,45.87,45.87,0,0,0-2.09,7.07c-.15.58-.18,1.2-.38,1.75-1,2.69-1.46,5.53-2.21,8.28-.18.65-.29,1.33-.51,2-.81,2.29-1.67,4.55-2.47,6.83a11.13,11.13,0,0,0-.33,1.83Zm46.41-89.2c1,.18,1.13.07,1.34-.95a10.28,10.28,0,0,1,.33-1.24c.47-1.29,1-2.57,1.41-3.88a2.36,2.36,0,0,0-.1-1.28c0-.15-.43-.2-.63-.28,0-.8.54-.53,1-.46a7.26,7.26,0,0,0,1-2.36,2.62,2.62,0,0,1,.61-1.62,1.11,1.11,0,0,0-.15-1.43c-.28-.37-.56-.34-.89,0-1,1-.71,2.46-1.41,3.55,0,.06.07.22.12.32s.17.37.28.6c-1,0-1.07.05-1.32.87-.31,1-.67,2-1,3q-.7,2.31-1.39,4.64c0,.06.05.15.11.34Zm8.82-6.2a7.66,7.66,0,0,1,.4-1.48c.87-1.52,1-3.32,1.92-4.82.29-.47.43-1,.68-1.52s-.1-.9-.47-1.2a.72.72,0,0,0-1.13.22,4.83,4.83,0,0,0-.64,1.12c-.49,1.43-.92,2.87-1.37,4.31-.17.57-.36,1.13-.48,1.71a4.37,4.37,0,0,0,0,2.51A1,1,0,0,0,424.42,373.17ZM317.11,481.74c.36-1,.68-2,1-3.05.47-1.68.89-3.37,1.35-5.05a1.72,1.72,0,0,0-.78-2,4.38,4.38,0,0,0-.64,1,10.68,10.68,0,0,0-1,3.77,3.93,3.93,0,0,1-.21.92c-.28,1.28-.57,2.56-.82,3.84a1.68,1.68,0,0,0,.46,1.67A6.11,6.11,0,0,0,317.11,481.74Zm96,104.39a1.13,1.13,0,0,0,.68-.69c.11-.46-.39-.51-.71-.63s-.77-.11-1-.33c-.81-.77-1.79-.58-2.73-.56a1.07,1.07,0,0,0-1.05,1.09.92.92,0,0,0,.83,1c.72.17,1.46.29,2.05.41A12.78,12.78,0,0,0,413.13,586.13ZM335.94,461.65a9.74,9.74,0,0,0,.67-1.33,20,20,0,0,0,.59-2.18c.22-1,.43-2,.57-3,.08-.5,0-1,.34-1.47.25-.31,0-.55-.49-.57-.44,1.11-.8,2.25-1.33,3.31a7.49,7.49,0,0,0-.63,2.39c-.09.63-.19,1.26-.24,1.89a6.26,6.26,0,0,0,.1.95Zm64.75-163.52a3,3,0,0,0,.26-1.25c0-.34-.36-.9-.56-.91-.37,0-1,.26-1.07.54-.28,1-.92,1.93-.78,3.13l1.42.08C400.27,299.06,400.52,298.61,400.69,298.13Zm-4.17,5.77a3,3,0,0,1-1.1.24c-.77,0-1.25-.05-1.38,1.21.29.52.66.57,1.2.33,1.2-.53,2.43-1,3.63-1.5.18-.08.29-.29.56-.58A4.17,4.17,0,0,0,396.52,303.9Zm19.33,76.71a1.78,1.78,0,0,0-.29-.71c0-.06-.45,0-.49.11a1.47,1.47,0,0,0-.1.87c.06.19.39.3.78.57A4,4,0,0,0,415.85,380.61Zm-22-74.38c0-.1-.11-.23-.18-.35-.12.08-.3.12-.35.23s.07.25.15.49C393.66,306.42,393.83,306.34,393.85,306.23ZM379.09,429.94a1.67,1.67,0,0,0-.4.16c.07.11.13.29.22.31s.25-.08.43-.16C379.22,430.1,379.15,429.94,379.09,429.94ZM198.69,350.5c.3.06.54.05.59.14a4.5,4.5,0,0,1,.79,2.48c-.16,1.42-.36,2.83-.56,4.25-.09.67-.21,1.33-.32,2-.21,1.29-.35,2.6-.64,3.88a17.69,17.69,0,0,1-1.14,4.47,1.72,1.72,0,0,0-.25.89,4.82,4.82,0,0,1-.34,2.09,14.71,14.71,0,0,0-.22,2c-.28,1.44-.66,2.86-.91,4.3-.36,2-.61,4-.95,6-.18,1.05-.47,2.08-.7,3.12-.08.39-.15.78-.19,1.17a8.76,8.76,0,0,1-.23,2.26c-.93,2.36-.92,4.91-1.54,7.33-.44,1.73-.59,3.52-.89,5.28a10.83,10.83,0,0,1-.3,1.28c-.78,2.6-.85,5.35-1.82,7.91a17,17,0,0,0-.31,2.72q-.6,3-1.32,6.05a12.14,12.14,0,0,0-.55,3.65c0,.84-.29,1.13-1.26,1.3.64-1.24.39-2.47.3-3.73a7.17,7.17,0,0,1,.32-4,1.88,1.88,0,0,0,.1-.95,4.59,4.59,0,0,1,.48-2,11.58,11.58,0,0,0,.48-2.66,4.49,4.49,0,0,1,.13-.83,8,8,0,0,0,.55-3.37,6.57,6.57,0,0,1,.61-3.13,3,3,0,0,0,.28-1.28,20,20,0,0,1,.88-4.8c.42-2,.72-4.07,1.09-6.1.1-.55.26-1.08.37-1.62.19-1,.36-1.94.54-2.91.37-2,.75-4.07,1.1-6.11.09-.51.12-1,.18-1.53s.06-.79.12-1.18c.2-1.38.41-2.75.64-4.13s.52-2.94.76-4.42c.15-.94.25-1.88.38-2.82a3.32,3.32,0,0,1,.13-.7,29.87,29.87,0,0,0,1.12-5.23,32.82,32.82,0,0,1,1.18-6.42c.41-1.1.6-2.28.91-3.42C198.38,351.33,198.53,351,198.69,350.5ZM195.64,373c.07-.45.21-.9-.37-1.1a.32.32,0,0,0-.29.14C194.79,372.6,195.19,372.79,195.64,373Zm98.29-171-1.21-2.73c.24-.65.75-.46,1.26-.35,1.13.24,1.51,0,1.54-1.13.06-1.87,0-3.74,0-5.62a5.7,5.7,0,0,0-.23-1.1,8.53,8.53,0,0,0-2.95.41c-.54.08-1.08.34-1.55-.15a2.24,2.24,0,0,1-.2-2.15,2.32,2.32,0,0,1,1.94-1.24,36.28,36.28,0,0,1,5-.26c1,0,2,.14,3,.21a1.46,1.46,0,0,0,.59,0c1.73-.68,3.56-.33,5.34-.56.63-.08,1.24-.32,1.87-.36,2.07-.14,4.17-.41,6.19.41.18.07.41,0,.59.06a2.62,2.62,0,0,1,.89.51,2.31,2.31,0,0,1,.06,2.16,1.65,1.65,0,0,1-1.78.66c-.42-.12-.82-.32-1.24-.46a.93.93,0,0,0-1.36.67,5.52,5.52,0,0,0-.16,1.77,25.75,25.75,0,0,0,.39,3.28c.29,1.52.65,1.79,2.22,1.94.95.09,1.53.65,1.42,1.41-.17,1.22-1,1.93-2,1.69a2.49,2.49,0,0,0-1.86,0c-.12.06-.31,0-.47,0-1,0-2.06,0-3.09,0-1.82-.05-3.64-.1-5.46-.2a10,10,0,0,0-3.39.5,6.49,6.49,0,0,1-2.57.36A12.93,12.93,0,0,0,293.93,201.94Zm4.75-3.77a4.51,4.51,0,0,0,3-.81c.16-.08.22-.5.23-.75,0-.56-.05-1.11-.07-1.67-.06-1.26-.09-2.53-.19-3.8a.77.77,0,0,0-1-.71,1.91,1.91,0,0,0-1.71,1.91c-.16,1.58.11,3.18-.37,4.74A3.27,3.27,0,0,0,298.68,198.17Zm9.9-8.45c-.95.21-1.72.35-2.47.56a.71.71,0,0,0-.38.53c0,1,0,2,0,3s0,1.9-.1,2.84c-.11,1.18,0,1.3,1.17,1.31a5.77,5.77,0,0,0,.72,0c.61-.07.83-.35.79-.95-.08-1.23-.15-2.46-.22-3.68a5,5,0,0,1,.39-2.46A3.68,3.68,0,0,0,308.58,189.72Zm15.3,117.7a.75.75,0,0,0-1.05.28,6.53,6.53,0,0,0-.81,1.71c-.53,1.91-1,3.84-1.49,5.76-.25,1-.36,2.05-.68,3-.82,2.49-1.72,5-2.59,7.43-.34,1-.67,2-1,2.94-.14.42-.11.91.33,1a1.44,1.44,0,0,0,1-.44,2.05,2.05,0,0,0,.38-.86c.15-.45.24-.93.41-1.37.45-1.18,1-2.33,1.39-3.52s.63-2.29,1-3.43a19.17,19.17,0,0,0,1.25-4.33,2.79,2.79,0,0,1,.17-.69c.31-1,.61-2,.94-2.95.18-.53.44-1,.61-1.55.25-.75.46-1.52.72-2.41A2.53,2.53,0,0,0,323.88,307.42Zm9.26-.48a24.23,24.23,0,0,0-1.3,2.9c-.63,1.84-1.14,3.72-1.73,5.58-.32,1-.77,2-1,3a8.25,8.25,0,0,0-.35,3.37c.63-.34,1-.65,1.19-1.24s.28-1,.43-1.49c.28-.91.53-1.83.85-2.73.49-1.37,1.15-2.7,1.51-4.11a14,14,0,0,1,1.37-3.79,1.87,1.87,0,0,0-.18-2.21C333.57,306.54,333.27,306.69,333.14,306.94Zm17.05-4.83c1.11-.42,2.17-1,3.27-1.42a1.45,1.45,0,0,0,.94-1.38c0-.51-.29-.82-.7-.75a6.57,6.57,0,0,0-2.25.65,6.13,6.13,0,0,1-2.47,1,12.76,12.76,0,0,0-2.47.68c-.19.06-.3.34-.48.58A4.24,4.24,0,0,0,350.19,302.11ZM324.75,321.8a7.5,7.5,0,0,0,.14-.95,8.76,8.76,0,0,1,1.33-3.53c.67-1.06.68-1.14-.4-2a1.7,1.7,0,0,0-1.17,1.1,34.22,34.22,0,0,0-1.52,4.86c-.11.38-.2.76-.31,1.2C324.18,323.07,324.44,323,324.75,321.8ZM273.49,324a1.59,1.59,0,0,0,.16-.32c.34-1.31.66-2.62,1-3.93.13-.5.28-1,.43-1.49.24-.88.54-1.74.73-2.63s.24-1.82.4-2.72.54-2,.64-3a26.54,26.54,0,0,1,.89-4.43,10.88,10.88,0,0,0,.33-1.88,3.52,3.52,0,0,0-.1-1.25.77.77,0,0,0-.51-.5.89.89,0,0,0-.64.38,3.43,3.43,0,0,0-.46,1.1c-.5,2.17-1,4.35-1.45,6.52-.14.66-.32,1.31-.45,2-.42,2.11-.8,4.22-1.23,6.32-.1.5-.38,1-.44,1.47a19.23,19.23,0,0,1-1.42,4.62C272.29,325.18,272.92,325.11,273.49,324Zm8,2c.6-2.51,1.22-5,1.84-7.52a23.68,23.68,0,0,1,1.57-5.6,4,4,0,0,0,.6-1.65,12.54,12.54,0,0,1,.81-3.84,1.49,1.49,0,0,0-.35-1.82c-1.11,0-1.15.82-1.35,1.54-.48,1.76-.95,3.52-1.43,5.28s-1,3.44-1.41,5.17a15.87,15.87,0,0,1-.46,2.22c-.74,1.77-.8,3.72-1.46,5.51a1.74,1.74,0,0,0,.57,2.16A2.37,2.37,0,0,0,281.45,326.08Zm97.37-58.82c-.09.44.52.94,1.15.9a.9.9,0,0,0,.68-.44c.14-.4-.62-.91-1.45-.91C379.12,266.9,378.86,267.06,378.82,267.26Zm-145.35,2a1.15,1.15,0,0,0,1,1.07c.76,0,1.54-.6,1.57-1.17a1.05,1.05,0,0,0-1.12-1.1A1.33,1.33,0,0,0,233.47,269.28Z" transform="translate(-182.02 -177.77)"/></svg>